<?xml version="1.0" encoding="UTF-8" standalone="no"?>
<svg
   xmlns:dc="http://purl.org/dc/elements/1.1/"
   xmlns:cc="http://creativecommons.org/ns#"
   xmlns:rdf="http://www.w3.org/1999/02/22-rdf-syntax-ns#"
   xmlns:svg="http://www.w3.org/2000/svg"
   xmlns="http://www.w3.org/2000/svg"
   xmlns:sodipodi="http://sodipodi.sourceforge.net/DTD/sodipodi-0.dtd"
   xmlns:inkscape="http://www.inkscape.org/namespaces/inkscape"
   width="304.28"
   height="172"
   viewBox="0 0 304.28 172"
   version="1.1"
   id="svg2367"
   sodipodi:docname="dinum-logo.svg"
   style="fill:none"
   inkscape:version="0.92.5 (2060ec1f9f, 2020-04-08)">
  <metadata
     id="metadata2373">
    <rdf:RDF>
      <cc:Work
         rdf:about="">
        <dc:format>image/svg+xml</dc:format>
        <dc:type
           rdf:resource="http://purl.org/dc/dcmitype/StillImage" />
        <dc:title></dc:title>
      </cc:Work>
    </rdf:RDF>
  </metadata>
  <defs
     id="defs2371" />
  <sodipodi:namedview
     pagecolor="#ffffff"
     bordercolor="#666666"
     borderopacity="1"
     objecttolerance="10"
     gridtolerance="10"
     guidetolerance="10"
     inkscape:pageopacity="0"
     inkscape:pageshadow="2"
     inkscape:window-width="1916"
     inkscape:window-height="1036"
     id="namedview2369"
     showgrid="false"
     inkscape:zoom="1.1442273"
     inkscape:cx="-140.88395"
     inkscape:cy="-185.54851"
     inkscape:window-x="0"
     inkscape:window-y="18"
     inkscape:window-maximized="0"
     inkscape:current-layer="svg2367"
     scale-x="0.6" />
  <g
     id="g4646"
     transform="translate(-122.37088,80.45783)">
    <path
       id="path2241"
       d="m 160.38949,-42.648387 c 0.007,0 0.0133,-0.0099 0.0133,-0.0099 0.0531,-0.03921 0.10634,-0.08822 0.15285,-0.147084 -0.007,0 -0.0133,0 -0.0199,-0.0098 -0.0465,0.04901 -0.0997,0.107874 -0.14622,0.166737 z"
       inkscape:connector-curvature="0"
       style="fill:#000091;stroke-width:0.48051" />
    <path
       id="path2243"
       d="m 167.7546,-45.127338 -0.11633,0.100042 c 0.0665,-0.01667 0.11633,-0.03335 0.11633,-0.100042 z"
       inkscape:connector-curvature="0"
       style="fill:#000091;stroke-width:0.48051" />
    <path
       id="path2245"
       d="m 165.37339,-42.595099 c 0.21335,-0.214355 0.42664,-0.441684 0.63999,-0.675501 h -0.006 c 0.4008,-0.454706 0.78866,-0.889904 1.25413,-1.286133 0.14219,-0.129881 0.27793,-0.240303 0.40724,-0.331263 0.019,-0.01908 0.0287,-0.04752 0.0382,-0.07534 0.01,-0.02907 0.0196,-0.05747 0.0394,-0.07405 -0.0922,0.03513 -0.16558,0.09067 -0.23944,0.146508 -0.0764,0.05781 -0.15328,0.115947 -0.25188,0.152273 -0.0388,0 -0.0776,-0.03897 -0.0388,-0.07794 0.13574,-0.09745 0.27149,-0.201382 0.40079,-0.305268 h -0.0258 c -0.0388,0 -0.0388,-0.03897 -0.0388,-0.07799 -0.48128,-0.07635 -0.85089,0.25246 -1.18177,0.546772 l -0.0207,0.01836 c -0.0515,0.0259 -0.10014,1.92e-4 -0.13839,-0.01994 -0.0194,-0.01023 -0.036,-0.01903 -0.0491,-0.01903 -0.29273,0.09807 -0.54519,0.27884 -0.79933,0.460761 -0.23405,0.167602 -0.46955,0.336213 -0.73921,0.442118 v -0.07794 c -0.0915,0.03152 -0.18207,0.07265 -0.27279,0.113881 -0.13349,0.06064 -0.2674,0.121473 -0.40598,0.152418 -0.25299,0.05867 -0.48767,0.05108 -0.7151,0.04377 -0.0747,-0.0024 -0.14872,-0.0048 -0.22223,-0.0048 -0.41401,0.04103 -0.82278,0.129593 -1.23102,0.218055 l -0.13296,0.02878 c -0.006,0.0032 -0.0129,0.0049 -0.0194,0.0065 -0.006,0.0016 -0.0129,0.0033 -0.0194,0.0065 -0.24568,0.06497 -0.47191,0.155925 -0.69818,0.285807 l -0.0259,0.01297 c -0.009,0.01192 -0.0178,0.02249 -0.026,0.03229 -0.01,0.01158 -0.0187,0.02215 -0.0257,0.03267 -0.0776,0.09096 -0.14867,0.168899 -0.25856,0.227377 -0.16232,0.08154 -0.30263,0.207292 -0.44063,0.331023 -0.0598,0.05362 -0.11941,0.107058 -0.18,0.156118 -0.0129,0.01297 -0.0388,0.01951 -0.0581,0.01951 -0.20038,0.194799 -0.40084,0.389741 -0.60766,0.578053 -0.0129,0.01302 -0.0711,0.01951 -0.11638,0.01302 0,0 0.006,0 0.006,-0.0065 l 0.0194,-0.03897 0.097,-0.155926 c 0.0194,-0.02922 0.0372,-0.05843 0.055,-0.08769 0.0178,-0.02921 0.0356,-0.05843 0.0549,-0.08769 0.0516,-0.07784 0.1035,-0.155925 0.16159,-0.227329 0.013,-0.01946 0.013,-0.03897 0,-0.05194 -0.0129,-0.01302 -0.0323,-0.01951 -0.0517,-0.01951 0.18749,-0.181873 0.40728,-0.33775 0.6335,-0.474167 v -0.0065 c -0.0259,0.0065 -0.0646,-0.01297 -0.0452,-0.03897 0.0189,-0.02383 0.0344,-0.05113 0.049,-0.07683 l 0.0156,-0.0271 c 0.003,-0.0065 0.005,-0.01139 0.006,-0.01624 0.002,-0.0049 0.003,-0.0098 0.006,-0.01624 -0.003,-0.0065 -0.008,-0.01134 -0.0129,-0.01624 -0.005,-0.0049 -0.01,-0.0098 -0.0129,-0.01624 l -0.0392,0.02585 c -0.0469,0.03061 -0.095,0.06213 -0.13531,0.09759 -0.0285,0.02455 -0.0552,0.05819 -0.0825,0.09274 -0.0593,0.07491 -0.12195,0.154051 -0.21488,0.154051 -0.006,0 -0.0388,0 -0.0582,-0.0065 -0.0194,0 -0.0323,-0.0065 -0.0388,-0.01297 0,-0.0033 0,-0.0049 8.2e-4,-0.0057 8.2e-4,-8.17e-4 0.002,-8.17e-4 0.006,-8.17e-4 0,0 0.006,-0.0065 0.006,-0.01302 0,0 0,-0.0065 0.006,-0.0065 0.003,-0.0065 0.006,-0.01134 0.01,-0.01624 0.003,-0.0049 0.006,-0.0098 0.01,-0.01624 0.003,-0.0065 0.006,-0.01134 0.01,-0.01624 0.003,-0.0049 0.006,-0.0097 0.01,-0.01624 0.003,-0.0032 0.005,-0.0081 0.006,-0.01297 0.002,-0.0049 0.003,-0.0098 0.006,-0.01297 l 0.007,-0.01341 c 0.006,-0.01139 0.014,-0.02499 0.0185,-0.03858 0.003,-0.0065 0.006,-0.01134 0.01,-0.01624 0.003,-0.0049 0.006,-0.0098 0.01,-0.01624 0.01,-0.01297 0.0178,-0.02758 0.0258,-0.04219 0.008,-0.01466 0.0162,-0.02926 0.0259,-0.04224 0.006,-0.01297 0.0129,-0.026 0.0258,-0.03897 0.006,-0.01297 0.0129,-0.02436 0.0194,-0.03575 0.006,-0.01134 0.0129,-0.02273 0.0194,-0.0357 0.0194,-0.03248 0,-0.05848 -0.0258,-0.06497 0.0711,-0.09091 0.15516,-0.168851 0.25857,-0.227329 h -0.0129 c 0.0893,-0.04483 0.18106,-0.09735 0.27221,-0.149535 0.0538,-0.03075 0.10821,-0.06194 0.16092,-0.09082 0.0194,-0.01946 0.0388,-0.03897 0.0646,-0.05194 -0.2133,0.07145 -0.40723,0.168899 -0.59473,0.298781 0,0 -0.0517,0.01951 -0.0646,0.03248 0,0 -0.0388,0.01297 -0.0905,-0.03248 -0.006,-0.0065 -0.006,-0.01297 -0.006,-0.026 0.0225,-0.04512 0.0688,-0.07506 0.11892,-0.107346 0.0364,-0.0235 0.0747,-0.04819 0.10735,-0.08101 0.0388,0 0.0711,0 0.0711,0.03897 0.74451,-0.583195 1.66247,-0.718075 2.58366,-0.853482 0.56647,-0.08322 1.13419,-0.166689 1.66343,-0.354665 0.055,-0.03897 0.11152,-0.0763 0.16808,-0.113688 0.0566,-0.03734 0.11311,-0.07467 0.16808,-0.113641 0.0943,-0.03921 0.17875,-0.106337 0.26822,-0.177452 0.0884,-0.07025 0.18173,-0.144394 0.29417,-0.199316 0.29739,-0.227329 0.52361,-0.487141 0.63999,-0.870396 0,-0.03897 -0.0388,-0.07794 -0.0388,-0.07794 -0.49133,0.526158 -1.05371,0.941847 -1.65488,1.247163 -0.5733,0.302145 -1.18753,0.346929 -1.79562,0.391232 -0.22843,0.01667 -0.45605,0.03325 -0.68026,0.06343 0.0388,-0.07794 0.11634,-0.07794 0.18745,-0.07794 0,-0.09226 0.0443,-0.1319 0.101,-0.182834 0.0152,-0.0136 0.0313,-0.02806 0.0477,-0.04449 h 0.10989 c 0.0194,0 0.0291,-0.01951 0.0388,-0.03897 0.01,-0.01951 0.0194,-0.03897 0.0388,-0.03897 0.0776,0 0.18744,-0.03902 0.14867,-0.03902 -0.0593,-0.07611 -0.14545,-0.04599 -0.24055,-0.01273 -0.0914,0.032 -0.19114,0.06689 -0.28307,0.01273 0.0342,-0.03743 0.0445,-0.08241 0.0538,-0.123347 0.0101,-0.04421 0.0191,-0.08375 0.0561,-0.103983 h 0.14867 c 0,-0.07794 0.0776,-0.14939 0.0776,-0.14939 0.33712,-0.202487 0.66267,-0.379267 0.98211,-0.552779 0.2134,-0.115899 0.42429,-0.230452 0.63399,-0.350099 -0.0424,0 -0.08,0.01744 -0.11653,0.03431 -0.0581,0.02691 -0.11335,0.05252 -0.18086,0.0047 0.0388,0 0.0388,-0.02758 0.0388,-0.05521 0,-0.02758 0,-0.05521 0.0388,-0.05521 0.24252,-0.06473 0.45836,-0.16962 0.67882,-0.276774 0.15564,-0.07563 0.31353,-0.15237 0.48474,-0.216854 -0.0508,0 -0.0978,0.01365 -0.14367,0.02696 -0.0883,0.02561 -0.17217,0.04997 -0.27005,-0.02696 0.0257,-0.01293 0.0464,-0.02941 0.0669,-0.04565 0.0413,-0.03282 0.0815,-0.06477 0.15938,-0.06477 v -0.11047 c 0,-0.03897 0.0388,-0.03897 0.0776,-0.03897 -0.0388,0 -0.0776,-0.03897 -0.0776,-0.03897 0.0205,-0.04123 0.061,-0.04973 0.10605,-0.0592 0.04,-0.0084 0.0837,-0.01759 0.12022,-0.05122 -0.0388,0 -0.10989,0 -0.10989,-0.03897 0.10989,-0.14939 0.29734,-0.18836 0.48479,-0.227329 -0.0194,-0.03897 -0.0566,-0.03897 -0.0889,-0.03897 -0.0323,0 -0.0598,0 -0.0598,-0.03897 0,-0.03897 0.0388,-0.03897 0.0776,-0.03897 h -0.0776 c -0.0609,-0.03061 -0.0501,-0.08519 -0.0426,-0.122963 0.002,-0.01038 0.004,-0.01946 0.004,-0.02643 0.15184,-0.178749 0.20181,-0.389693 0.25145,-0.599436 0.0243,-0.102733 0.0486,-0.205226 0.0847,-0.303442 -0.0388,0 -0.0776,0 -0.0776,-0.03897 -0.36346,0.403003 -0.93959,0.555709 -1.48689,0.700775 l -0.0516,0.0137 h -0.1875 c -0.18745,0.07794 -0.4525,0.07799 -0.63999,-0.03897 -0.0891,-0.04671 -0.15271,-0.105136 -0.22137,-0.168227 -0.0459,-0.04209 -0.094,-0.08635 -0.15352,-0.130555 -0.30383,-0.18836 -0.60122,-0.33775 -0.93738,-0.454658 -0.93733,-0.298829 -1.91344,-0.454707 -2.8896,-0.415737 0.27259,-0.149775 0.56205,-0.209359 0.85536,-0.269711 0.15184,-0.03123 0.30478,-0.06271 0.45691,-0.107009 0.096,-0.02825 0.1911,-0.05737 0.28572,-0.08635 0.5362,-0.164238 1.05635,-0.323527 1.62777,-0.29042 -0.0748,-0.02652 -0.17058,-0.01691 -0.25875,-0.0081 -0.0414,0.0042 -0.0811,0.0081 -0.11619,0.0081 -0.43208,-0.03215 -0.86862,0.06396 -1.32405,0.164238 -0.0964,0.02124 -0.19374,0.04267 -0.29205,0.06314 -0.17837,0.03705 -0.34799,0.09034 -0.51785,0.143673 -0.18715,0.05877 -0.3747,0.117629 -0.57464,0.155108 -0.0867,0.02989 -0.15636,0.08073 -0.22416,0.130315 -0.10912,0.07972 -0.21358,0.156021 -0.377,0.135984 v -0.116908 c 0.37489,-0.454707 0.82743,-0.902878 1.4286,-0.941848 0.58113,-0.09456 1.1291,-0.0272 1.70067,0.04305 0.0961,0.01177 0.19273,0.02369 0.29037,0.03489 0.4686,0.03767 0.90701,0.142087 1.3794,0.254574 l 0.0493,0.01172 c 0.10341,0 0.1616,0.09096 0.21796,0.179086 0.0457,0.07155 0.0903,0.141222 0.15699,0.158712 0.092,0.03171 0.18408,0.03762 0.2761,0.04353 0.1342,0.0086 0.26841,0.0172 0.40266,0.105857 0,-0.02624 -0.004,-0.0517 -0.009,-0.07698 -0.009,-0.04978 -0.017,-0.09865 0.009,-0.150352 0.0834,-0.08385 0.17899,-0.06136 0.27313,-0.03921 0.0737,0.01735 0.14641,0.03445 0.21171,2.4e-4 0.20498,-0.127095 0.0127,-0.32223 -0.17976,-0.517509 -0.0928,-0.09413 -0.18562,-0.188312 -0.23396,-0.274948 0,-0.03897 0.0388,-0.07794 0.0388,-0.07794 0.0849,0.07602 0.164,0.154676 0.24237,0.232663 0.19628,0.195231 0.38825,0.386186 0.65618,0.520777 0.18745,0.07794 0.63994,0.18836 0.56239,-0.03897 -0.13277,-0.294409 -0.35961,-0.549752 -0.58858,-0.807546 -0.0943,-0.106144 -0.18903,-0.212769 -0.27764,-0.322662 v -0.149391 c -0.0589,0 -0.0731,-0.02249 -0.0907,-0.05036 -0.006,-0.0088 -0.0115,-0.01821 -0.0192,-0.02758 v -0.149391 c -0.0948,-0.04968 -0.11599,-0.128392 -0.13738,-0.207532 -0.0122,-0.04502 -0.0243,-0.09019 -0.0501,-0.130266 -0.0648,-0.104896 -0.0694,-0.233961 -0.0742,-0.367014 -0.004,-0.105856 -0.008,-0.214259 -0.0421,-0.314974 -0.0776,-0.227378 -0.1099,-0.415737 -0.14872,-0.643067 -0.042,-0.232567 -0.0884,-0.454995 -0.13373,-0.672714 -0.08,-0.384216 -0.15703,-0.753968 -0.20239,-1.139529 -0.0598,-0.551145 0.21878,-1.017221 0.50358,-1.49369 0.0844,-0.141246 0.16942,-0.283419 0.2463,-0.42898 0.26501,-0.454682 0.56239,-0.902873 1.05367,-1.20816 0.1072,-0.443463 0.39887,-0.812783 0.6891,-1.180272 l 0.022,-0.02789 c 0.28644,-0.356625 0.76478,-0.574642 1.11733,-0.735316 l 0.0398,-0.01816 c 0.52361,-0.233838 0.99552,-0.383234 1.00201,-0.383234 h -25.96758 v 19.999595 h 18.42357 c 0.49276,-0.356827 0.98245,-0.581946 1.56536,-0.849926 0.26596,-0.12229 0.55133,-0.253469 0.8653,-0.410211 0.0665,-0.0334 0.14545,-0.07222 0.23314,-0.115323 0.52616,-0.25861 1.36446,-0.6706 1.6803,-0.982403 z m -5.84598,-2.698255 c -0.0731,0.0074 -0.15059,0.01514 -0.12138,-0.04354 0.0272,-0.131467 0.16193,-0.170869 0.2935,-0.209358 0.0564,-0.01648 0.11215,-0.03282 0.15861,-0.05612 l 0.0212,-0.01096 0.0155,-0.0082 c 0.0729,-0.03868 0.16213,-0.08601 0.228,-0.05853 0.0445,0.06314 0.0995,0.07943 0.153,0.09524 0.0398,0.01177 0.0787,0.02331 0.11181,0.05372 -0.13973,0.140021 -0.30277,0.15386 -0.46806,0.167842 -0.10985,0.0093 -0.22065,0.01869 -0.32632,0.06521 -0.019,0 -0.0422,0.0024 -0.0659,0.0047 z m -5.71922,-0.913402 c 0,0.03897 0.0388,0.07794 0.0388,0.07794 0.90499,-1.019787 1.72599,-1.890182 2.8896,-2.611188 0.0311,-0.01302 0.0195,0.0033 0.004,0.02489 -0.0229,0.03224 -0.0543,0.0764 0.0346,0.05305 0.38523,-0.08774 0.55821,-0.417371 0.72653,-0.738111 0.0435,-0.08294 0.0867,-0.165296 0.13325,-0.242706 0.17649,-0.286816 0.42722,-0.470563 0.67987,-0.655752 0.18221,-0.133534 0.36538,-0.267788 0.52251,-0.441973 0,0.03897 0,0.07794 -0.0388,0.116908 0.0388,0.03897 0.0776,0.03897 0.11638,0.03897 0.0682,-0.05137 0.14267,-0.07265 0.21398,-0.09303 0.091,-0.026 0.17697,-0.05055 0.23852,-0.134303 -0.29734,-0.116908 -0.67877,-0.155877 -0.97611,-0.03897 -0.78866,0.37672 -1.46094,0.980817 -2.10093,1.662853 -0.38787,0.409202 -0.78866,0.792457 -1.27998,1.058755 -0.33612,0.675549 -0.71106,1.279599 -1.20238,1.922665 z m 3.15594,-2.415764 c -0.0202,0.0406 -0.0405,0.06175 -0.0598,0.08197 -0.0176,0.0184 -0.0345,0.03604 -0.05,0.06694 -0.0387,0.0777 -0.0775,0.110085 -0.14852,0.14891 -0.0388,0 -0.0775,0 -0.0775,-0.03882 0.0387,-0.14891 0.14852,-0.297868 0.2971,-0.336693 0.0387,0.0065 0.0387,0.04531 0.0387,0.0777 z m 1.65305,5.768427 c 0.0323,-0.03248 0.0711,-0.07145 0.0904,-0.110422 0.0323,-0.07794 -0.16794,-0.05848 -0.20023,-0.03897 -0.0293,0.02354 -0.048,0.04714 -0.0704,0.07558 l -0.007,0.0088 c -0.0269,0.03094 -0.0585,0.05963 -0.0905,0.0887 -0.0217,0.01975 -0.0437,0.03969 -0.0645,0.06069 -0.0904,0.09096 -0.18086,0.181873 -0.27773,0.266299 -0.0646,0.05848 0.14208,0.08447 0.1873,0.0455 0.0516,-0.03897 0.0969,-0.08447 0.14209,-0.12993 0.0172,0 0.0344,-0.0029 0.0459,-0.0048 l 0.008,-0.0012 0.004,-4.33e-4 c 0.10706,-0.03589 0.18672,-0.110373 0.26423,-0.182786 l 0.0199,-0.0186 c 0.0258,-0.02595 -0.006,-0.05194 -0.0517,-0.05843 z m -0.58445,-0.422417 c -7.2e-4,1.44e-4 -10e-4,3.37e-4 -0.002,6.73e-4 -8.2e-4,8.17e-4 -8.2e-4,0.0025 -8.2e-4,0.0057 -0.0396,0.0272 -0.0788,0.05487 -0.11787,0.08245 -0.10105,0.07145 -0.20157,0.142472 -0.30877,0.203352 -0.10254,0.05771 -0.20773,0.107586 -0.31382,0.157896 -0.0611,0.02898 -0.12253,0.05809 -0.18394,0.08894 0,0 0,-0.0065 -0.006,-0.0065 -0.0129,-0.01951 -0.0388,-0.02599 -0.0646,-0.01297 -0.14223,0.07794 -0.26505,0.181873 -0.37494,0.292294 -0.0194,0.01297 -0.0388,0.03248 -0.0517,0.05194 l -0.0582,0.05848 v 0.0065 c -0.0259,0.026 -0.0517,0.05194 -0.0841,0.09091 -0.007,0.0068 -0.0119,0.0135 -0.0169,0.01999 -0.009,0.01225 -0.018,0.0235 -0.0348,0.032 -0.0259,0.01297 -0.0905,0.01297 -0.084,-0.026 v -0.0065 c -0.0194,0.01297 -0.0453,0.026 -0.0647,0.03248 -0.01,0.0065 -0.0194,0.01134 -0.0291,0.01624 -0.01,0.0049 -0.0194,0.0098 -0.0291,0.01624 -0.006,-0.0065 -0.0194,-0.0065 -0.0259,-0.0065 -0.006,0 -0.0194,0 -0.0258,0.0065 -0.0151,0.01297 -0.0302,0.02523 -0.0452,0.03753 -0.0302,0.02451 -0.0604,0.04906 -0.0905,0.07938 -0.0776,0.07145 -0.14867,0.149391 -0.21979,0.233816 0,0 0,0.0065 -0.006,0.0065 0,0.0032 -0.002,0.0049 -0.003,0.0065 -0.002,0.0016 -0.003,0.0032 -0.003,0.0065 l -0.0129,0.01297 c -0.002,0.0025 -0.004,0.005 -0.005,0.0071 -0.002,0.0034 -0.004,0.0059 -0.008,0.0059 l -0.006,0.0065 c -0.006,0.01297 -0.0129,0.02599 -0.0258,0.03897 -0.006,0.0065 -0.0194,0.01297 -0.0323,0.01297 -0.006,-0.0065 -0.013,-0.01297 -0.013,-0.01946 -0.003,-0.0033 -0.005,-0.0065 -0.006,-0.0098 -0.002,-0.0033 -0.003,-0.0065 -0.006,-0.0098 -0.006,-0.0098 -0.0113,-0.01946 -0.0162,-0.02922 -0.005,-0.0098 -0.01,-0.01951 -0.0161,-0.02921 v -0.0065 c 0,-0.0032 -0.002,-0.0065 -0.003,-0.0097 -0.002,-0.0033 -0.003,-0.0065 -0.003,-0.0098 l 0.11638,-0.136417 0.006,-0.0065 c 0.006,-0.0065 0.0129,-0.01461 0.0194,-0.02273 0.006,-0.0081 0.0129,-0.01624 0.0194,-0.02273 0.01,-0.01302 0.021,-0.026 0.0323,-0.03897 0.0113,-0.01302 0.0226,-0.02599 0.0323,-0.03902 0.003,-0.0065 0.006,-0.01134 0.01,-0.01619 0.003,-0.0049 0.006,-0.0098 0.01,-0.01624 0.0388,-0.05199 0.0776,-0.103935 0.11638,-0.162413 v -0.0065 c 0.006,-0.0065 0.0129,-0.01297 0.0129,-0.02599 0.0194,-0.02595 0.0388,-0.05194 0.0517,-0.07794 l 0.0388,-0.07794 v -0.0065 l 0.006,-0.0065 c 0,-0.0033 0.002,-0.0049 0.003,-0.0065 0.002,-0.0016 0.003,-0.0032 0.003,-0.0065 0.006,-0.01624 0.0129,-0.0308 0.0194,-0.04541 0.006,-0.01461 0.0129,-0.02926 0.0194,-0.0455 v -0.0065 l 0.006,-0.02599 c 0.003,-0.0065 0.005,-0.01302 0.006,-0.01951 0.002,-0.0065 0.003,-0.01297 0.006,-0.01946 v -0.0065 c 0.003,-0.0098 0.005,-0.01951 0.006,-0.02926 0.002,-0.0098 0.003,-0.01946 0.006,-0.02922 0,-0.0065 0,-0.01951 -0.006,-0.02599 0.0388,-0.07145 0.0905,-0.136417 0.14867,-0.201334 -0.003,0 -0.006,0.0016 -0.01,0.0032 -0.002,9.61e-4 -0.004,0.0019 -0.006,0.0025 -0.001,4.81e-4 -0.003,7.69e-4 -0.004,7.69e-4 -0.0288,0.01807 -0.0536,0.04214 -0.0788,0.06669 -0.0201,0.01956 -0.0405,0.0394 -0.0634,0.0567 -0.0388,0.03248 -0.11638,-0.01946 -0.0646,-0.05843 0.0323,-0.026 0.0581,-0.05199 0.084,-0.07794 0,0 0,-0.0065 0.006,-0.0065 0.0258,-0.0233 0.0505,-0.04968 0.0754,-0.07631 0.0376,-0.04012 0.0757,-0.08082 0.11849,-0.112055 0.0453,-0.03248 0.0776,-0.05843 0.11638,-0.09091 0.006,-0.0065 0.0129,-0.01302 0.0194,-0.01302 0.0258,-0.03248 0.0517,-0.06497 0.084,-0.0974 0,0 0.006,0 0.006,-0.0065 0.22199,-0.215077 0.53389,-0.290949 0.85232,-0.368359 0.20081,-0.04887 0.40421,-0.09831 0.58921,-0.183747 0.10451,-0.04344 0.22108,-0.02633 0.33621,-0.0095 0.0914,0.01345 0.18202,0.02672 0.265,0.0095 0.10989,0 0.22622,0 0.33616,0.07794 -0.25563,0.135985 -0.49958,0.291478 -0.74089,0.445289 -0.0699,0.04454 -0.13974,0.08909 -0.20941,0.132813 -0.002,0 -0.003,0 -0.004,1.44e-4 z m 0.80779,-2.64737 c -0.0302,0.0035 -0.0498,0.0057 -0.0331,0.02258 0.10989,0.110422 0.33616,0.07145 0.49132,-0.01297 0.10989,-0.07794 0.22623,-0.07794 0.37494,-0.07794 0.0388,0 0.0388,-0.07145 0.0388,-0.110421 0.10989,0.03897 0.18745,0.03897 0.29734,0.03897 0.89855,-0.18836 1.76482,-0.37672 2.59226,-0.792457 -0.83725,-0.646238 -1.86943,-0.934112 -2.88042,-1.216075 -0.16775,-0.0468 -0.33492,-0.09341 -0.5005,-0.141462 0.0364,0 0.0728,0.01211 0.10946,0.02427 0.074,0.02465 0.14891,0.04959 0.2267,-0.02427 -0.10254,-0.08173 -0.21675,-0.0974 -0.32982,-0.112872 -0.0936,-0.01278 -0.18648,-0.02551 -0.27134,-0.07554 0.009,0 0.0194,0.0021 0.0309,0.0043 0.0387,0.0074 0.0879,0.01691 0.11782,-0.04325 -0.19639,-0.09865 -0.39272,-0.132141 -0.59098,-0.165968 -0.10192,-0.01739 -0.20441,-0.03489 -0.30758,-0.06136 0.18745,-0.03897 0.30383,-0.188359 0.30383,-0.376719 0,-0.03897 -0.0776,-0.03897 -0.11638,-0.03897 -0.44601,0.22733 -0.74983,0.643019 -0.93733,1.130208 0.169,0.09942 0.35116,0.08788 0.52971,0.07659 0.10144,-0.0064 0.20172,-0.01278 0.29773,0.0013 -0.0848,0.08044 -0.20725,0.1023 -0.32502,0.123298 -0.0439,0.0078 -0.0871,0.01552 -0.12748,0.02609 -0.11638,0.026 -0.22627,0.110421 -0.18744,0.18836 0.0258,0.03248 0.0517,0.0455 0.084,0.05199 -0.084,0.02595 -0.1616,0.06496 -0.23271,0.136369 0.10643,0.08371 0.21618,0.06756 0.32449,0.05161 0.043,-0.0063 0.0858,-0.01259 0.12805,-0.01259 0,0.04714 0.031,0.06319 0.0632,0.07986 0.0166,0.0086 0.0335,0.0173 0.0467,0.03056 -0.18749,0.07145 -0.33616,0.227329 -0.37494,0.33775 -0.0464,0.112535 -0.1319,0.185621 -0.21671,0.25813 -0.0572,0.04887 -0.11397,0.0974 -0.15823,0.157559 v 0.116956 c -0.12488,0.110566 -0.25323,0.209311 -0.37984,0.306758 -0.26001,0.200084 -0.51266,0.394451 -0.71265,0.674059 0.0388,0 0.0388,0.03897 0.0388,0.07794 -0.0358,0.05391 -0.0866,0.09125 -0.13493,0.126663 -0.0564,0.04137 -0.10922,0.08015 -0.13012,0.139636 0,0.03897 0,0.07794 0.0388,0.07794 0.23723,-0.07832 0.4425,-0.210175 0.64369,-0.339432 0.18259,-0.11734 0.36187,-0.232519 0.55869,-0.303586 0.16087,-0.03868 0.30094,-0.111526 0.4376,-0.182642 0.11595,-0.0603 0.22944,-0.119359 0.35106,-0.155157 0.0937,-0.01946 0.1972,-0.04709 0.30061,-0.07467 0.10345,-0.02763 0.20686,-0.05521 0.3006,-0.07472 0,0.03897 0,0.07794 0.0388,0.07794 h 0.29739 c -0.0184,0.04416 -0.0761,0.05079 -0.11566,0.05535 z"
       inkscape:connector-curvature="0"
       style="clip-rule:evenodd;fill:#000091;fill-rule:evenodd;stroke-width:0.48051" />
    <path
       id="path2247"
       d="m 197.664,-60.236831 h -21.5342 c 0,0 0.0391,0.0065 0.20181,0.09103 0.17572,0.09103 0.40358,0.214561 0.54029,0.286081 0.27994,0.143041 0.54682,0.325092 0.72259,0.604667 0.0781,0.110532 0.18879,0.338097 0.11719,0.487641 -0.0781,0.188552 -0.11719,0.494137 -0.30598,0.565656 -0.22781,0.117033 -0.52727,0.117033 -0.79419,0.07802 -0.14973,0 -0.29946,-0.03901 -0.45567,-0.07802 0.56633,0.227565 1.10013,0.494138 1.47771,1.020786 0.0391,0.07802 0.1888,0.110532 0.33852,0.110532 0.0391,0 0.0391,0.07802 0.0391,0.110532 -0.0781,0.07802 -0.14973,0.117033 -0.11066,0.22756 h 0.11066 c 0.18874,-0.07802 0.14973,-0.455125 0.4166,-0.338092 0.18879,0.110532 0.26692,0.377104 0.14973,0.565656 -0.14973,0.149545 -0.29946,0.266578 -0.45567,0.377109 -0.0391,0.07802 -0.0391,0.188552 0,0.266573 0.11066,0.149539 0.14973,0.299084 0.18879,0.455129 0.11715,0.266587 0.14973,0.565657 0.26688,0.832244 0.14972,0.565656 0.29945,1.131312 0.26692,1.703456 0,0.299069 -0.14973,0.565656 -0.0391,0.87126 0.0781,0.29907 0.26687,0.526639 0.4166,0.793226 0.14972,0.22757 0.29945,0.377105 0.41665,0.604674 0.22786,0.377104 0.64446,0.754209 0.45567,1.2093 -0.11067,0.266587 -0.52727,0.227569 -0.79419,0.377152 -0.22786,0.188552 -0.0391,0.494108 0.0781,0.68266 0.18879,0.338087 -0.22786,0.565657 -0.49473,0.682709 0.0781,0.117004 0.22781,0.07803 0.26687,0.149535 0.0391,0.188552 0.22786,0.299069 0.11066,0.494156 -0.14972,0.227522 -0.60539,0.338087 -0.37753,0.682661 0.14968,0.266587 0.052,0.559169 -0.0391,0.832243 -0.11066,0.338087 -0.41665,0.487622 -0.68352,0.565657 -0.22786,0.07803 -0.49479,0.07803 -0.71611,0.03902 -0.0781,-0.03902 -0.14973,-0.07803 -0.22786,-0.07803 -0.64446,-0.07803 -1.28892,-0.260052 -1.92689,-0.260052 -0.18879,0.03902 -0.37754,0.0715 -0.52726,0.149535 -0.16929,0.123539 -0.3255,0.260052 -0.45572,0.4031 0,0 0,0 -0.006,0.0065 -0.026,0.03248 -0.0586,0.05848 -0.0846,0.09101 -0.013,0.01951 -0.0326,0.03902 -0.0456,0.05853 -0.013,0.01297 -0.0195,0.026 -0.0325,0.03897 -0.11067,0.136561 -0.20831,0.286095 -0.29946,0.43563 -0.006,0.01302 -0.013,0.01951 -0.0195,0.02604 -0.007,0.01951 -0.0195,0.03248 -0.0326,0.05199 -0.12368,0.227569 -0.21483,0.461626 -0.28643,0.695682 -0.26039,0.864774 -0.14319,1.605961 0.0391,1.788026 0.0521,0.05199 1.2499,0.422609 2.08315,0.793226 0.39056,0.17553 0.66397,0.305556 0.89183,0.448604 h 21.14388 v -19.999574 z"
       inkscape:connector-curvature="0"
       style="fill:#e1000f;stroke-width:0.48051" />
    <path
       id="path2249"
       d="m 177.40901,-52.942353 c 0.14978,0.03897 0.37768,0.03897 0.37768,0.116908 -0.0781,0.298685 -0.52741,0.376624 -0.75531,0.681796 h -0.1172 c -0.11066,0.07789 -0.0781,0.266202 -0.18879,0.266202 -0.11071,-0.03892 -0.22791,0 -0.33862,0.03897 0.14978,0.149342 0.33862,0.26625 0.56648,0.227281 0.0391,0 0.11071,0.07789 0.11071,0.149343 0,0 0.0391,0 0.0781,-0.03897 0.0391,0 0.0781,0 0.0781,0.03897 v 0.149342 c -0.11071,0.149343 -0.30604,0.07794 -0.45576,0.110373 0.30598,0.07794 0.60549,0.07794 0.87246,0 0.2279,-0.07789 0,-0.454514 0.14977,-0.642826 -0.0781,0 0,-0.11686 -0.0781,-0.11686 0.0781,-0.07794 0.14973,-0.188312 0.22786,-0.227281 0.0781,0 0.18884,-0.03897 0.2279,-0.11686 0,-0.07794 -0.14977,-0.110422 -0.11719,-0.188312 0.22786,-0.149343 0.4167,-0.376624 0.33857,-0.603905 -0.0391,-0.11686 -0.33857,-0.11686 -0.52741,-0.188312 -0.18879,-0.0714 -0.4167,0 -0.64461,0.03897 -0.18879,0 -0.37763,0.11686 -0.56647,0.149343 -0.26692,0.07794 -0.49483,0.227281 -0.7162,0.376624 0.26697,-0.110374 0.52741,-0.149343 0.83345,-0.227282 0.22785,0.0065 0.41669,-0.04546 0.64455,0.0065"
       inkscape:connector-curvature="0"
       style="fill:#808080;stroke-width:0.48051" />
    <path
       id="path2251"
       d="m 144.66795,-15.23774 h 2.84301 v -5.65993 h 1.78187 c 3.08329,0 4.96531,-1.579964 4.96531,-4.159871 0,-2.599991 -1.88202,-4.179956 -4.96531,-4.179956 h -4.62488 z m 4.74501,-11.63978 c 1.20128,0 1.92204,0.719996 1.92204,1.779953 0,1.139962 -0.72076,1.839969 -1.92204,1.839969 h -1.902 v -3.619922 z"
       inkscape:connector-curvature="0"
       style="fill:#161616;stroke-width:0.48051" />
    <path
       id="path2253"
       d="m 156.90983,-15.23774 h 2.84303 v -5.65993 h 1.46157 l 3.74394,5.65993 h 3.34358 l -4.38465,-6.199879 c 1.44153,-0.65998 2.26238,-1.919973 2.26238,-3.619922 0,-2.599991 -1.902,-4.179956 -4.98529,-4.179956 h -4.28456 z m 4.44472,-11.63978 c 1.20127,0 1.90205,0.719996 1.90205,1.779953 0,1.139962 -0.70078,1.839969 -1.90205,1.839969 h -1.60169 v -3.619922 z"
       inkscape:connector-curvature="0"
       style="fill:#161616;stroke-width:0.48051" />
    <path
       id="path2255"
       d="m 170.40308,-15.23774 h 8.16867 v -2.35998 h -5.32564 v -3.599932 h 4.52477 v -2.359929 h -4.52477 v -3.319939 h 5.32564 v -2.359977 h -8.16867 z"
       inkscape:connector-curvature="0"
       style="fill:#161616;stroke-width:0.48051" />
    <path
       id="path2257"
       d="m 182.17572,-15.23774 h 2.84303 v -10.039826 l 3.12332,5.239913 h 2.00209 l 3.12317,-5.239913 v 10.039826 h 2.84318 v -13.999757 h -3.54376 l -3.42364,5.879905 -3.42363,-5.879905 h -3.54376 z"
       inkscape:connector-curvature="0"
       style="fill:#161616;stroke-width:0.48051" />
    <path
       id="path2259"
       d="m 200.32218,-15.23774 h 2.84318 v -13.999757 h -2.84318 z"
       inkscape:connector-curvature="0"
       style="fill:#161616;stroke-width:0.48051" />
    <path
       id="path2261"
       d="m 210.20579,-30.437475 h 2.60292 l -2.26224,-2.699937 h -2.92342 z m -2.823,15.199735 h 8.16867 v -2.35998 h -5.32549 v -3.599932 h 4.52496 v -2.359929 h -4.52496 v -3.319939 h 5.32549 v -2.359977 h -8.16867 z"
       inkscape:connector-curvature="0"
       style="fill:#161616;stroke-width:0.48051" />
    <path
       id="path2263"
       d="m 219.15577,-15.23774 h 2.8427 v -5.65993 h 1.46171 l 3.74413,5.65993 h 3.34339 l -4.38465,-6.199879 c 1.44153,-0.65998 2.26224,-1.919973 2.26224,-3.619922 0,-2.599991 -1.90186,-4.179956 -4.98529,-4.179956 h -4.28423 z m 4.44472,-11.63978 c 1.20127,0 1.90185,0.719996 1.90185,1.779953 0,1.139962 -0.70058,1.839969 -1.90185,1.839969 h -1.60202 v -3.619922 z"
       inkscape:connector-curvature="0"
       style="fill:#161616;stroke-width:0.48051" />
    <path
       id="path2265"
       d="m 232.64897,-15.23774 h 8.16867 v -2.35998 h -5.32597 v -3.599932 h 4.52496 v -2.359929 h -4.52496 v -3.319939 h 5.32597 v -2.359977 h -8.16867 z"
       inkscape:connector-curvature="0"
       style="fill:#161616;stroke-width:0.48051" />
    <path
       id="path2267"
       d="m 144.66795,5.7617 h 2.84301 V -4.27808 l 3.12331,5.23996 h 2.00214 l 3.12332,-5.23996 V 5.7617 h 2.84298 V -8.23796 h -3.54376 l -3.42363,5.88 -3.42363,-5.88 h -3.54374 z"
       inkscape:connector-curvature="0"
       style="fill:#161616;stroke-width:0.48051" />
    <path
       id="path2269"
       d="m 162.81453,5.7617 h 2.84303 V -8.23796 h -2.84303 z"
       inkscape:connector-curvature="0"
       style="fill:#161616;stroke-width:0.48051" />
    <path
       id="path2271"
       d="m 169.87519,5.7617 h 2.84299 V -4.35784 l 6.26666,10.11954 h 3.64386 V -8.23796 h -2.84299 V 1.88206 l -6.26667,-10.12002 h -3.64385 z"
       inkscape:connector-curvature="0"
       style="fill:#161616;stroke-width:0.48051" />
    <path
       id="path2273"
       d="m 186.84863,5.7617 h 2.84303 V -8.23796 h -2.84303 z"
       inkscape:connector-curvature="0"
       style="fill:#161616;stroke-width:0.48051" />
    <path
       id="path2275"
       d="m 192.64795,3.82188 c 1.24116,1.47997 2.823,2.34008 5.18567,2.34008 2.58274,0 4.62491,-1.57991 4.66479,-4.21984 0,-4.80029 -6.36676,-4.08001 -6.36676,-6.61998 0,-0.83993 0.6607,-1.47997 1.6616,-1.47997 1.06145,0 1.98211,0.7001 2.8033,1.75962 l 2.08205,-1.87975 c -1.20128,-1.41991 -2.80282,-2.35979 -4.90505,-2.35979 -2.68316,0 -4.52496,1.83988 -4.52496,4.05983 0,4.73975 6.36676,4.03965 6.36676,6.61999 0,0.99994 -0.68088,1.59962 -1.80191,1.59962 -1.14122,0 -2.26225,-0.64004 -3.10314,-1.71975 z"
       inkscape:connector-curvature="0"
       style="fill:#161616;stroke-width:0.48051" />
    <path
       id="path2277"
       d="m 204.24026,-5.6581 h 4.32459 V 5.7617 h 2.84317 V -5.6581 h 4.32459 v -2.57986 h -11.49235 z"
       inkscape:connector-curvature="0"
       style="fill:#161616;stroke-width:0.48051" />
    <path
       id="path2279"
       d="m 218.53014,5.7617 h 2.8427 V 0.10177 h 1.46171 l 3.74414,5.65993 h 3.34339 l -4.38466,-6.19954 c 1.44153,-0.66022 2.26224,-1.92012 2.26224,-3.62016 0,-2.60004 -1.90186,-4.17996 -4.98529,-4.17996 h -4.28423 z m 4.44472,-11.63988 c 1.20128,0 1.90186,0.72029 1.90186,1.78029 0,1.13977 -0.70058,1.83988 -1.90186,1.83988 h -1.60202 v -3.62017 z"
       inkscape:connector-curvature="0"
       style="fill:#161616;stroke-width:0.48051" />
    <path
       id="path2281"
       d="m 232.02335,5.7617 h 8.16867 V 3.40191 h -5.32598 v -3.59998 h 4.52497 v -2.35978 h -4.52497 v -3.32033 h 5.32598 v -2.35978 h -8.16867 z"
       inkscape:connector-curvature="0"
       style="fill:#161616;stroke-width:0.48051" />
    <path
       id="path2283"
       d="m 194.62093,41.46119 -1.86198,1.70004 h -0.48051 l 1.10133,-1.9403 h 1.24116 z m -1.34159,6.57866 h -0.40026 c -0.50069,0.60016 -1.06097,1.08019 -1.60154,1.08019 -0.56076,0 -0.84109,-0.3402 -0.84109,-1.08019 0,-0.29984 0.04,-0.61986 0.10009,-0.89999 l 3.26368,-1.07971 c 0.64052,-1.51985 -0.12013,-2.17959 -1.02109,-2.17959 -1.54195,0 -3.3037,2.6995 -3.3037,4.85939 0,1.02013 0.48051,1.57992 1.24135,1.57992 0.88078,-0.0202 1.80192,-0.87981 2.56256,-2.28002 z m -1.11958,-3.279 c 0.44014,0 0.82071,0.33972 0.62033,1.12007 l -2.02198,0.53961 c 0.3205,-0.95958 0.92114,-1.65968 1.40165,-1.65968 z m -6.36614,0.0394 h 1.08115 l -1.72181,4.71957 c -0.1602,0.40027 0.0601,0.80005 0.48051,0.80005 1.22131,0 2.68288,-1.03982 3.24349,-2.51979 h -0.30032 c -0.44048,0.61985 -1.4015,1.29978 -2.12232,1.4199 l 1.58175,-4.41973 h 1.62172 l 0.20023,-0.67992 h -1.5817 l 0.60064,-1.70004 h -0.62068 l -1.12122,1.70004 -1.34144,0.18019 z m -1.5027,-0.89855 c 0.22022,0 0.52054,0.23977 0.38038,0.67992 l -1.94208,4.69939 c 0.50055,-0.0798 1.02108,-0.5598 1.32145,-0.99994 h 0.32031 c -0.46048,1.18013 -1.5016,2.03976 -2.4026,2.03976 -0.22022,0 -0.54058,-0.23977 -0.38037,-0.67992 l 1.80191,-4.69939 c -0.5005,0.0798 -1.02108,0.5598 -1.3214,0.99994 h -0.30032 c 0.46047,-1.19983 1.58169,-2.03976 2.52272,-2.03976 z m 0.56191,-1.2008 c 0.40046,0 0.7408,-0.32002 0.7408,-0.73998 0,-0.39979 -0.34034,-0.73999 -0.7408,-0.73999 -0.42044,0 -0.7408,0.3402 -0.7408,0.73999 0,0.40026 0.34039,0.73998 0.7408,0.73998 z m -8.7497,3.9003 c 0.44048,-0.96006 0.28028,-1.39972 0,-1.39972 -0.24026,0 -0.52059,0.25995 -0.80087,0.73998 h -0.30032 c 0.46048,-1.02012 1.06116,-2.03976 1.72186,-2.03976 0.56062,0 0.7608,0.55979 0.7608,1.17965 v 0.87981 c 0.0901,-0.10475 0.17788,-0.20758 0.26356,-0.308 l 0.002,-0.002 0.001,-10e-4 c 0.84589,-0.99129 1.49165,-1.74809 2.23634,-1.74809 0.5806,0 0.88092,0.3599 0.88092,0.89951 0,0.32002 -0.10009,0.72029 -0.32031,1.14025 l -1.66179,3.33955 c 0.5005,-0.0798 1.02108,-0.5598 1.3214,-0.99994 h 0.30032 c -0.46047,1.19983 -1.5817,2.03976 -2.52273,2.03976 -0.42044,0 -0.6607,-0.43966 -0.48051,-0.79957 l 1.92209,-3.69992 c 0.22022,-0.41997 0.26029,-0.70011 -0.0801,-0.70011 -0.46047,0 -1.54167,0.76017 -2.12227,1.46027 l -1.26139,3.31937 c -0.14011,0.3402 -0.28028,0.41996 -0.60063,0.41996 -0.52054,0 -0.78083,-0.33972 -0.54058,-0.87981 z m -1.3029,-1.28104 c 0.22026,-0.75968 0.10013,-1.4396 -0.48051,-1.4396 -0.72408,0 -0.95084,0.47762 -1.65253,1.95567 l -0.0493,0.10379 v -0.87981 c 0,-0.61986 -0.20022,-1.17965 -0.76084,-1.17965 -0.6607,0 -1.26133,1.01964 -1.72185,2.03976 h 0.30036 c 0.32031,-0.46033 0.62063,-0.73998 0.86093,-0.73998 0.28028,0 0.44044,0.43966 0,1.39972 l -1.28142,2.83982 c -0.24026,0.54009 0.02,0.87981 0.54062,0.87981 0.32031,0 0.46047,-0.0798 0.60064,-0.41997 l 1.26134,-3.31984 c 0.36038,-0.43967 0.68073,-0.81975 1.08119,-1.23972 z m -6.32635,0.56076 c 0.20023,-0.78035 -0.18019,-1.12007 -0.62068,-1.12007 -0.48051,0 -1.08114,0.7001 -1.4015,1.65968 z m 0.4993,2.15893 h -0.40041 c -0.50055,0.60016 -1.06116,1.08019 -1.60173,1.08019 -0.56061,0 -0.8409,-0.3402 -0.8409,-1.08019 0,-0.29984 0.04,-0.61986 0.10009,-0.89999 l 3.26353,-1.07971 c 0.64067,-1.51985 -0.12013,-2.17959 -1.02113,-2.17959 -1.54167,0 -3.30355,2.6995 -3.30355,4.85939 0,1.02013 0.48051,1.57992 1.24135,1.57992 0.88096,-0.0202 1.80196,-0.87981 2.56275,-2.28002 z m -6.40472,-3.2396 h -1.08115 v -0.49973 l 1.34144,-0.18019 1.12118,-1.70004 h 0.62067 l -0.60064,1.70004 h 1.5817 l -0.20018,0.67992 h -1.62177 l -1.5817,4.41973 c 0.72077,-0.12012 1.68179,-0.80005 2.12227,-1.4199 h 0.30032 c -0.56061,1.47997 -2.02218,2.51979 -3.24349,2.51979 -0.42045,0 -0.64066,-0.39978 -0.48051,-0.80005 z m -6.80633,3.66005 c 0,-1.45979 1.62172,-3.41979 2.52273,-3.41979 0.20023,0 0.40041,0.0202 0.56061,0.0802 l -0.94103,2.5198 c -0.54058,0.65974 -1.38152,1.45979 -1.78193,1.45979 -0.22021,0 -0.36038,-0.1999 -0.36038,-0.64004 z m 4.46533,-4.87958 0.5005,0.0404 -1.74185,3.99929 c -0.42044,0.96005 -0.24025,1.4002 0,1.4002 0.24026,0 0.54058,-0.28014 0.86093,-0.73998 h 0.30032 c -0.46052,1.01964 -1.06116,2.03976 -1.72186,2.03976 -0.56061,0 -0.90095,-0.60016 -0.80086,-1.67986 l 0.04,-0.38009 -0.10902,0.15233 c -0.71717,1.00138 -1.36614,1.90762 -2.03328,1.90762 -0.5806,0 -0.88092,-0.3599 -0.88092,-0.89999 0,-2.31991 2.54271,-5.27937 4.92527,-5.27937 h 0.10014 z m -4.58622,1.73944 c 0.22026,-0.75968 0.10013,-1.4396 -0.48051,-1.4396 -0.72413,0 -0.95084,0.47762 -1.65257,1.95567 l -0.0493,0.10379 v -0.87981 c 0,-0.61986 -0.20023,-1.17965 -0.76084,-1.17965 -0.6607,0 -1.26134,1.01964 -1.72186,2.03976 h 0.30032 c 0.32036,-0.46033 0.62068,-0.73998 0.84094,-0.73998 0.28028,0 0.44049,0.43966 0,1.39972 l -1.28137,2.86 c -0.24026,0.53961 0.02,0.87981 0.54057,0.87981 0.32036,0 0.46047,-0.0802 0.60064,-0.41996 l 1.26134,-3.31985 c 0.36043,-0.44015 0.68074,-0.81975 1.08119,-1.23971 h 1.32141 z m -8.25036,4.39859 -0.12013,0.3599 h -4.66503 l 0.12013,-0.38008 c 1.44155,-0.25995 1.68181,-0.38008 2.28246,-1.99988 l 1.3014,-3.47937 c 0.58063,-1.62028 0.4605,-1.73993 -0.80086,-1.99989 l 0.12013,-0.36038 h 6.06655 l -0.36038,1.9403 h -0.44049 c 0,-1.15995 -0.12013,-1.46027 -1.22131,-1.46027 h -0.28033 c -1.08115,0 -1.22131,0.16001 -1.52163,0.99994 l -0.86092,2.34009 h 1.26138 c 0.84089,0 1.16124,-0.51992 1.54162,-1.19984 h 0.44048 l -1.04112,2.83934 h -0.44048 c 0.10013,-0.85964 0.10013,-1.19984 -0.6807,-1.19984 h -1.26138 l -0.58062,1.6001 c -0.62764,1.66497 -0.44828,1.69908 1.04627,1.98162 0.0311,0.006 0.0627,0.012 0.095,0.0183 z"
       inkscape:connector-curvature="0"
       style="clip-rule:evenodd;fill:#000000;fill-rule:evenodd;stroke-width:0.48051" />
    <path
       id="path2285"
       d="m 151.3547,26.16127 -1.86197,1.34014 v 0.0202 h -0.48051 l 1.10118,-1.60009 h 1.2413 z m 13.01558,9.37955 2.98315,-7.91976 -0.10009,-0.11965 -2.06221,0.23978 v 0.24025 l 0.40046,0.29984 c 0.34183,0.26572 0.25131,0.51318 -0.0323,1.28921 l -0.0478,0.1307 -2.28242,6.07989 c -0.1802,0.3599 0.0601,0.80005 0.48051,0.80005 0.94098,0 1.94207,-0.86011 2.40255,-2.04025 h -0.30032 c -0.32036,0.44015 -0.96102,0.92018 -1.44153,0.99994 z m 13.67305,-6.09959 1.86198,-1.70004 v -0.23978 h -1.2413 l -1.10119,1.93982 z m 0.11883,4.85988 h 0.40041 c -0.74075,1.41991 -1.66175,2.28002 -2.54267,2.28002 -0.76079,0 -1.2413,-0.56028 -1.2413,-1.57992 0,-2.15989 1.76184,-4.85988 3.30346,-4.85988 0.88097,0 1.66175,0.65974 1.02109,2.1796 l -3.28347,1.08018 c -0.0601,0.28014 -0.10009,0.60016 -0.10009,0.9 0,0.73998 0.28028,1.0797 0.84089,1.0797 0.54057,0 1.10114,-0.47954 1.60168,-1.0797 z m -0.10105,-2.15989 c 0.20018,-0.76017 -0.18019,-1.09989 -0.62067,-1.09989 -0.46048,0 -1.06111,0.7001 -1.40151,1.63998 z m -5.88629,-1.06049 h -1.08115 v -0.50021 l 1.34144,-0.17971 1.12117,-1.70005 h 0.62068 l -0.60064,1.70005 h 1.58165 l -0.20018,0.67992 h -1.62173 l -1.58169,4.41973 c 0.72076,-0.11965 1.68178,-0.80005 2.12227,-1.41991 h 0.30032 c -0.56061,1.47998 -2.02213,2.5198 -3.24345,2.5198 -0.42044,0 -0.64066,-0.39979 -0.48051,-0.79957 z m -2.20247,-0.24025 c 0.12013,-0.43967 -0.16015,-0.67993 -0.40041,-0.67993 -0.94098,0 -2.06216,0.86012 -2.52268,2.04025 h 0.30032 c 0.30032,-0.44015 0.82091,-0.92018 1.3214,-0.99994 l -1.80191,4.69987 c -0.16015,0.43966 0.1602,0.67992 0.38042,0.67992 0.90096,0 1.94203,-0.86011 2.40255,-2.04025 h -0.30032 c -0.30032,0.44015 -0.82085,0.92018 -1.3214,0.99994 z m 0.92248,-2.59908 c 0,0.39978 -0.34034,0.73998 -0.7408,0.73998 -0.40041,0 -0.74075,-0.3402 -0.74075,-0.73998 0,-0.40027 0.3203,-0.73999 0.74075,-0.73999 0.40046,0 0.7408,0.33972 0.7408,0.73999 z m -10.10858,3.07959 c -0.90096,0 -2.52268,1.96 -2.52268,3.42027 0,0.43966 0.14012,0.63955 0.38037,0.63955 0.38042,0 1.22131,-0.79956 1.76189,-1.45978 l 0.94098,-2.5198 c -0.18019,-0.0601 -0.36038,-0.0802 -0.56056,-0.0802 z m 2.44306,-1.41991 -0.5005,-0.0399 -0.56061,0.55979 h -0.1001 c -2.38256,0 -4.92522,2.95994 -4.92522,5.28033 0,0.53961 0.30032,0.89951 0.88092,0.89951 0.66709,0 1.31607,-0.90624 2.03323,-1.90762 l 0.10902,-0.15233 -0.04,0.38009 c -0.10009,1.08018 0.24025,1.67986 0.80086,1.67986 0.6607,0 1.26134,-1.01964 1.72182,-2.03977 h -0.30032 c -0.32036,0.45985 -0.62068,0.73999 -0.86093,0.73999 -0.24026,0 -0.42045,-0.44015 0,-1.39973 z m -10.09182,6.48016 c -0.86088,0.3402 -1.46152,0.73998 -1.46152,1.35984 0,0.57998 0.54057,0.82023 1.66175,0.82023 1.50159,0 2.32245,-0.44015 2.32245,-1.02012 0,-0.25996 -0.34035,-0.38009 -1.2413,-0.67992 -0.5806,-0.1802 -1.00105,-0.3402 -1.28138,-0.48003 z m 0.99975,-2.46021 c -0.40041,0 -0.54057,-0.33973 -0.54057,-0.69963 0,-1.15995 0.56061,-2.60004 1.46156,-2.60004 0.40041,0 0.54058,0.33972 0.54058,0.70011 -0.02,1.17965 -0.5806,2.59956 -1.46157,2.59956 z m 0.76286,1.88023 c 1.10113,0.33972 1.78187,0.59968 1.78187,1.35984 0,0.97976 -1.80191,2.13972 -3.98424,2.12001 -1.26129,0 -2.34244,-0.3402 -2.34244,-1.15995 0,-0.78034 0.72076,-1.42038 2.4826,-1.9403 -0.24025,-0.16001 -0.34034,-0.3599 -0.34034,-0.64004 0,-0.47954 0.44043,-0.85963 1.20127,-1.21953 -0.7408,-0.10043 -1.22131,-0.66022 -1.22131,-1.47997 0,-1.26038 1.04112,-2.69999 2.68283,-2.69999 0.34039,0 0.64071,0.0798 0.88097,0.23978 h 1.80186 l -0.20018,0.67992 h -1.06111 c 0.06,0.18019 0.10009,0.38008 0.10009,0.60016 0,1.22001 -0.98106,2.61974 -2.54271,2.69998 -0.40041,0.22008 -0.60064,0.51991 -0.60064,0.75969 0,0.28254 0.32752,0.37816 1.05136,0.5891 0.0963,0.0279 0.1996,0.0582 0.31012,0.0913 z m -6.34807,-3.41979 c 0.78078,0 0.80082,0.33972 0.68069,1.19983 h 0.44049 l 1.04107,-2.83981 h -0.44044 c -0.38042,0.67992 -0.70077,1.19983 -1.54162,1.19983 h -1.72184 l 0.84088,-2.34008 c 0.30031,-0.83993 0.44048,-0.99994 1.52163,-0.99994 h 0.76079 c 1.10118,0 1.22131,0.29984 1.22131,1.45979 h 0.44044 l 0.36038,-1.93982 h -6.52689 l -0.12013,0.3599 c 1.26133,0.25996 1.38146,0.38009 0.80085,2.00036 l -1.30138,3.49956 c -0.60063,1.62028 -0.84089,1.73993 -2.30243,1.99988 l -0.10011,0.38009 h 7.24768 l 1.30136,-2.05995 h -0.50055 c -0.84089,0.82023 -1.68173,1.57992 -3.32349,1.57992 -1.80579,0 -1.77363,-0.0879 -1.23181,-1.57512 0.0349,-0.0956 0.0719,-0.19701 0.11062,-0.30464 l 0.60064,-1.6001 h 1.74186 z"
       inkscape:connector-curvature="0"
       style="clip-rule:evenodd;fill:#000000;fill-rule:evenodd;stroke-width:0.48051" />
    <path
       id="path2287"
       d="m 154.53659,15.24168 c 0.40041,0 0.7408,-0.3402 0.7408,-0.73999 0,-0.39978 -0.34039,-0.73998 -0.7408,-0.73998 -0.42045,0 -0.74075,0.3402 -0.74075,0.73998 0,0.41997 0.3203,0.73999 0.74075,0.73999 z m 5.92834,2.51931 c 0,-0.96006 -0.24025,-1.31996 -0.92094,-1.31996 -0.8409,0 -1.62173,0.9 -2.40251,1.9797 l 1.68174,-4.49949 -0.10009,-0.13983 -2.06216,0.23977 v 0.23978 l 0.40041,0.30032 c 0.34861,0.27052 0.24756,0.54153 -0.0494,1.33726 l -0.0307,0.0826 -1.8219,4.75946 c -0.16015,0.39978 -0.34035,0.87981 -0.34035,0.99994 0,0.55979 0.7608,1.09988 1.46152,1.09988 1.56166,0.0197 4.18438,-2.85999 4.18438,-5.07947 z m 17.35818,-2.03976 1.86198,-1.70005 v -0.23977 h -1.2413 l -1.10119,1.93982 z m 0.12061,4.8594 h 0.40041 c -0.76079,1.4199 -1.68178,2.27954 -2.5627,2.25983 -0.76079,0 -1.2413,-0.54009 -1.2413,-1.56021 0,-2.15941 1.76188,-4.8594 3.30345,-4.8594 0.88097,0 1.66175,0.66022 1.02109,2.18008 l -3.26343,1.0797 c -0.0601,0.28014 -0.10009,0.60016 -0.10009,0.9 0,0.73998 0.28028,1.0797 0.84089,1.0797 0.54057,0 1.10114,-0.48003 1.60168,-1.0797 z m -0.10206,-2.1599 c 0.20023,-0.75968 -0.18019,-1.09988 -0.62062,-1.09988 -0.48051,0 -1.08115,0.7001 -1.40151,1.63998 z m -5.9084,-1.05856 h -1.08114 v -0.50021 l 1.34139,-0.17971 1.12117,-1.70005 h 0.62068 l -0.60064,1.70005 h 1.58165 l -0.20018,0.67992 h -1.62173 l -1.58164,4.41925 c 0.72076,-0.11965 1.68173,-0.79957 2.12222,-1.41943 h 0.30032 c -0.56061,1.47949 -2.02213,2.51932 -3.2434,2.51932 -0.42044,0 -0.64066,-0.39979 -0.48051,-0.79957 z m -1.63796,0.51991 c 0.22027,-0.76016 0.10014,-1.44009 -0.48046,-1.44009 -0.72413,0 -0.95083,0.47763 -1.65252,1.95616 l -0.0493,0.10379 v -0.87981 c 0,-0.61986 -0.20018,-1.18014 -0.76079,-1.18014 -0.66071,0 -1.2613,1.02013 -1.72182,2.03977 h 0.30032 c 0.32036,-0.45985 0.62068,-0.73999 0.8409,-0.73999 0.28028,0 0.44048,0.44015 0,1.40021 l -1.28133,2.83981 c -0.24026,0.53962 0.02,0.87982 0.54057,0.87982 0.32031,0 0.46047,-0.0803 0.60059,-0.41997 l 1.26134,-3.31984 c 0.36038,-0.43967 0.68074,-0.81975 1.08115,-1.23972 z m -6.34614,0.53865 c 0.20018,-0.75968 -0.18019,-1.09988 -0.62068,-1.09988 -0.48051,0 -1.06111,0.7001 -1.40145,1.63998 z m 0.49925,2.1599 H 164.048 c -0.50055,0.59967 -1.06111,1.0797 -1.60169,1.0797 -0.56056,0 -0.84089,-0.33972 -0.84089,-1.0797 0,-0.29984 0.0401,-0.61986 0.10014,-0.9 l 3.26338,-1.0797 c 0.64072,-1.51986 -0.12012,-2.18008 -1.02103,-2.18008 -1.54162,0 -3.30346,2.69999 -3.30346,4.8594 0,1.02012 0.48051,1.56021 1.2413,1.56021 0.88092,0.0197 1.80187,-0.83993 2.56266,-2.25983 z m -8.40729,0.76064 c 0,0.25996 0.46047,0.5598 0.78078,0.5598 1.30136,0 2.52267,-2.33961 2.50264,-3.63938 0,-0.44015 -0.22022,-0.62034 -0.52054,-0.62034 -0.48051,0 -1.36143,0.72028 -1.92204,1.4002 l -0.52054,1.39973 c -0.18019,0.45985 -0.3203,0.81975 -0.3203,0.89999 z m -2.10185,-4.89928 c 0.24025,0 0.52054,0.24026 0.40041,0.67993 l -1.92199,4.69986 c 0.5005,-0.0802 1.02103,-0.56027 1.32135,-0.99994 h 0.30032 c -0.46047,1.17965 -1.50155,2.03977 -2.4025,2.03977 -0.24026,0 -0.56061,-0.24026 -0.40041,-0.67992 l 1.80186,-4.69987 c -0.5005,0.0802 -1.02108,0.56027 -1.3214,0.99994 h -0.30032 c 0.46052,-1.17965 1.5817,-2.03977 2.52268,-2.03977 z m -8.31038,-2.07964 h 4.30451 l -0.12013,0.38008 c -1.46152,0.25996 -1.70177,0.3796 -2.30241,1.9994 l -1.28135,3.51974 c -0.62065,1.67986 -0.46048,1.87975 0.64068,1.87975 1.36048,0 2.25254,-0.98745 3.0315,-1.84996 0.0579,-0.0639 0.11508,-0.12734 0.17183,-0.1898 h 0.50055 l -1.4215,2.51979 h -6.54685 l 0.12013,-0.3599 c 1.4415,-0.25996 1.68176,-0.38008 2.28239,-1.99988 l 1.30136,-3.53944 c 0.58061,-1.6198 0.46048,-1.73993 -0.80084,-1.99988 z"
       inkscape:connector-curvature="0"
       style="clip-rule:evenodd;fill:#000000;fill-rule:evenodd;stroke-width:0.48051" />
    <rect
       id="rect2289"
       height="34.99929"
       width="2.0021265"
       y="-29.23745"
       x="300.77374"
       style="fill:#161616;stroke-width:0.48051" />
    <path
       id="path2291"
       d="m 309.01835,-20.237545 h 3.3035 c 2.66683,0 4.46874,-1.931986 4.46874,-4.199946 0,-2.267959 -1.80191,-4.199897 -4.46874,-4.199897 h -3.3035 z m 3.32753,-6.85188 c 1.56165,0 2.69085,1.151974 2.69085,2.651934 0,1.487996 -1.1292,2.651935 -2.69085,2.651935 h -1.62172 v -5.303869 z"
       inkscape:connector-curvature="0"
       style="fill:#161616;stroke-width:0.48051" />
    <path
       id="path2293"
       d="m 319.00046,-27.341405 c 0.54057,0 0.98505,-0.456004 0.98505,-0.996001 0,-0.539997 -0.44448,-0.996001 -0.98505,-0.996001 -0.54057,0 -0.99706,0.456004 -0.99706,0.996001 0,0.539997 0.45649,0.996001 0.99706,0.996001 z m -0.76882,7.10386 h 1.52562 v -6.047891 h -1.52562 z"
       inkscape:connector-curvature="0"
       style="fill:#161616;stroke-width:0.48051" />
    <path
       id="path2295"
       d="m 321.58657,-20.237545 h 1.52561 v -3.875938 c 0.22825,-0.383975 0.70876,-0.791976 1.45355,-0.791976 0.27629,0 0.48051,0.03599 0.67271,0.08399 v -1.49996 c -0.14415,-0.048 -0.32434,-0.08404 -0.52856,-0.08404 -0.68473,0 -1.20127,0.311995 -1.5977,0.719996 v -0.599965 h -1.52561 z"
       inkscape:connector-curvature="0"
       style="fill:#161616;stroke-width:0.48051" />
    <path
       id="path2297"
       d="m 331.78251,-21.221533 -1.09316,-0.864005 c -0.32435,0.431978 -0.90096,0.719996 -1.56166,0.719996 -0.94901,0 -1.64575,-0.456004 -1.7899,-1.583953 h 4.2405 c 0.0481,-0.204025 0.0961,-0.51602 0.0961,-0.851993 0,-1.583953 -1.10517,-2.723963 -2.78696,-2.723963 -1.9821,0 -3.1113,1.475983 -3.1113,3.263961 0,1.763952 1.21329,3.26391 3.36357,3.26391 1.14121,0 2.07821,-0.467967 2.64281,-1.223953 z m -2.93111,-4.055937 c 0.8529,0 1.29737,0.611977 1.3214,1.224003 h -2.78696 c 0.16818,-0.792025 0.68473,-1.224003 1.46556,-1.224003 z"
       inkscape:connector-curvature="0"
       style="fill:#161616;stroke-width:0.48051" />
    <path
       id="path2299"
       d="m 336.02541,-21.437522 c -1.02108,0 -1.75386,-0.755987 -1.75386,-1.823968 0,-1.056017 0.73278,-1.823968 1.72983,-1.823968 0.62467,0 1.10518,0.276005 1.39348,0.69597 l 1.18927,-0.91196 c -0.5646,-0.744021 -1.45355,-1.224003 -2.55872,-1.224003 -2.09022,0 -3.33954,1.49996 -3.33954,3.263961 0,1.763952 1.24932,3.26391 3.33954,3.26391 1.10517,0 1.99412,-0.47998 2.55872,-1.223953 l -1.18927,-0.912008 c -0.2883,0.420014 -0.76881,0.696019 -1.36945,0.696019 z"
       inkscape:connector-curvature="0"
       style="fill:#161616;stroke-width:0.48051" />
    <path
       id="path2301"
       d="m 340.16596,-22.445536 c 0,1.475982 0.72077,2.327974 2.23438,2.327974 0.50453,0 0.86491,-0.06001 1.16523,-0.192011 v -1.331974 c -0.20421,0.08399 -0.48051,0.131996 -0.90095,0.131996 -0.60064,0 -0.96102,-0.263992 -0.96102,-0.935985 v -2.471936 h 1.84996 v -1.367964 h -1.84996 v -1.511973 h -1.53764 v 1.511973 h -1.12919 v 1.367964 h 1.12919 z"
       inkscape:connector-curvature="0"
       style="fill:#161616;stroke-width:0.48051" />
    <path
       id="path2303"
       d="m 345.68895,-27.341405 c 0.54057,0 0.98504,-0.456004 0.98504,-0.996001 0,-0.539997 -0.44447,-0.996001 -0.98504,-0.996001 -0.54058,0 -0.99706,0.456004 -0.99706,0.996001 0,0.539997 0.45648,0.996001 0.99706,0.996001 z m -0.76882,7.10386 h 1.52562 v -6.047891 h -1.52562 z"
       inkscape:connector-curvature="0"
       style="fill:#161616;stroke-width:0.48051" />
    <path
       id="path2305"
       d="m 351.15811,-26.525451 c -1.97009,0 -3.31552,1.451957 -3.31552,3.263961 0,1.811955 1.34543,3.26391 3.31552,3.26391 1.97009,0 3.31552,-1.451955 3.31552,-3.26391 0,-1.812004 -1.34543,-3.263961 -3.31552,-3.263961 z m 0.024,5.087929 c -1.00907,0 -1.75386,-0.768 -1.75386,-1.823968 0,-1.056017 0.74479,-1.823968 1.75386,-1.823968 0.97303,0 1.70581,0.767951 1.70581,1.823968 0,1.043956 -0.73278,1.823968 -1.70581,1.823968 z"
       inkscape:connector-curvature="0"
       style="fill:#161616;stroke-width:0.48051" />
    <path
       id="path2307"
       d="m 355.86519,-20.237545 h 1.52562 v -3.947966 c 0.22824,-0.383976 0.63667,-0.899947 1.40549,-0.899947 0.74479,0 1.20127,0.503959 1.20127,1.307948 v 3.539965 h 1.53764 v -3.599933 c 0,-1.787977 -1.04511,-2.687973 -2.3545,-2.687973 -0.80486,0 -1.36946,0.311995 -1.7899,0.719997 v -0.479982 h -1.52562 z"
       inkscape:connector-curvature="0"
       style="fill:#161616;stroke-width:0.48051" />
    <path
       id="path2309"
       d="m 309.46282,-15.34168 c 0.54057,0 0.98504,-0.45595 0.98504,-0.99595 0,-0.54 -0.44447,-0.996 -0.98504,-0.996 -0.54058,0 -0.99706,0.456 -0.99706,0.996 0,0.54 0.45648,0.99595 0.99706,0.99595 z m -0.76882,7.10372 h 1.52562 v -6.0477 H 308.694 Z"
       inkscape:connector-curvature="0"
       style="fill:#161616;stroke-width:0.48051" />
    <path
       id="path2311"
       d="m 312.04892,-8.23796 h 1.52562 v -3.94787 c 0.22824,-0.38388 0.63668,-0.89985 1.40549,-0.89985 0.74479,0 1.20128,0.50396 1.20128,1.3078 v 3.53992 h 1.53763 v -3.59998 c 0,-1.78774 -1.04511,-2.68773 -2.3545,-2.68773 -0.80485,0 -1.36945,0.31199 -1.7899,0.71999 v -0.47998 h -1.52562 z"
       inkscape:connector-curvature="0"
       style="fill:#161616;stroke-width:0.48051" />
    <path
       id="path2313"
       d="m 319.83607,-10.4459 c 0,1.47612 0.72076,2.32807 2.23437,2.32807 0.50453,0 0.86492,-0.0601 1.16524,-0.19221 v -1.33197 c -0.20422,0.0841 -0.48051,0.13214 -0.90096,0.13214 -0.60064,0 -0.96102,-0.2638 -0.96102,-0.93603 v -2.4718 h 1.84996 v -1.36796 h -1.84996 v -1.51197 h -1.53763 v 1.51197 h -1.1292 v 1.36796 h 1.1292 z"
       inkscape:connector-curvature="0"
       style="fill:#161616;stroke-width:0.48051" />
    <path
       id="path2315"
       d="m 330.04642,-9.22156 -1.09316,-0.86444 c -0.32434,0.43246 -0.90095,0.72028 -1.56165,0.72028 -0.94901,0 -1.64575,-0.456 -1.7899,-1.58424 h 4.2405 c 0.048,-0.20374 0.0961,-0.51559 0.0961,-0.85194 0,-1.58381 -1.10517,-2.72377 -2.78696,-2.72377 -1.9821,0 -3.1113,1.47598 -3.1113,3.26386 0,1.76395 1.21329,3.2641 3.36357,3.2641 1.14121,0 2.07821,-0.46801 2.6428,-1.22385 z m -2.93111,-4.05613 c 0.85291,0 1.29738,0.61197 1.32141,1.224 h -2.78696 c 0.16818,-0.79203 0.68472,-1.224 1.46555,-1.224 z"
       inkscape:connector-curvature="0"
       style="fill:#161616;stroke-width:0.48051" />
    <path
       id="path2317"
       d="m 331.42885,-8.23796 h 1.52562 v -3.87579 c 0.22824,-0.38398 0.70875,-0.79198 1.45354,-0.79198 0.2763,0 0.48051,0.036 0.67272,0.084 v -1.50001 c -0.14416,-0.048 -0.32435,-0.084 -0.52856,-0.084 -0.68473,0 -1.20128,0.31199 -1.5977,0.72 v -0.59997 h -1.52562 z"
       inkscape:connector-curvature="0"
       style="fill:#161616;stroke-width:0.48051" />
    <path
       id="path2319"
       d="m 336.30939,-8.23796 h 1.52562 v -3.94787 c 0.22824,-0.38388 0.58863,-0.89985 1.28537,-0.89985 0.68472,0 1.08114,0.45595 1.08114,1.18815 v 3.65957 h 1.53763 v -3.71963 c 0,-0.0961 0,-0.18019 -0.012,-0.26414 0.24026,-0.408 0.60064,-0.86395 1.26134,-0.86395 0.68473,0 1.08115,0.45595 1.08115,1.18815 v 3.65957 h 1.53763 v -3.71963 c 0,-1.70413 -0.98505,-2.56808 -2.23437,-2.56808 -1.02109,0 -1.5977,0.456 -2.03016,0.98398 -0.39642,-0.64801 -1.06913,-0.98398 -1.83795,-0.98398 -0.74479,0 -1.26134,0.29998 -1.66977,0.69597 v -0.45596 h -1.52562 z"
       inkscape:connector-curvature="0"
       style="fill:#161616;stroke-width:0.48051" />
    <path
       id="path2321"
       d="m 348.11696,-15.34168 c 0.54058,0 0.98505,-0.45595 0.98505,-0.99595 0,-0.54 -0.44447,-0.996 -0.98505,-0.996 -0.54057,0 -0.99705,0.456 -0.99705,0.996 0,0.54 0.45648,0.99595 0.99705,0.99595 z m -0.76881,7.10372 h 1.52562 v -6.0477 h -1.52562 z"
       inkscape:connector-curvature="0"
       style="fill:#161616;stroke-width:0.48051" />
    <path
       id="path2323"
       d="m 350.70355,-8.23796 h 1.52562 v -3.94787 c 0.22824,-0.38388 0.63667,-0.89985 1.40549,-0.89985 0.74479,0 1.20128,0.50396 1.20128,1.3078 v 3.53992 h 1.53763 v -3.59998 c 0,-1.78774 -1.04511,-2.68773 -2.3545,-2.68773 -0.80486,0 -1.36946,0.31199 -1.7899,0.71999 v -0.47998 h -1.52562 z"
       inkscape:connector-curvature="0"
       style="fill:#161616;stroke-width:0.48051" />
    <path
       id="path2325"
       d="m 358.87462,-15.34168 c 0.54058,0 0.98505,-0.45595 0.98505,-0.99595 0,-0.54 -0.44447,-0.996 -0.98505,-0.996 -0.54057,0 -0.99706,0.456 -0.99706,0.996 0,0.54 0.45649,0.99595 0.99706,0.99595 z m -0.76881,7.10372 h 1.52562 v -6.0477 h -1.52562 z"
       inkscape:connector-curvature="0"
       style="fill:#161616;stroke-width:0.48051" />
    <path
       id="path2327"
       d="m 360.85048,-9.11393 c 0.57661,0.68425 1.34543,1.11622 2.42657,1.11622 1.14122,0 2.1623,-0.69625 2.18632,-1.96816 0,-2.08782 -2.89507,-1.72792 -2.89507,-2.75986 0,-0.312 0.22824,-0.57599 0.70875,-0.57599 0.4685,0 0.86492,0.312 1.17725,0.69602 l 1.00907,-0.88798 c -0.43245,-0.588 -1.27335,-1.03199 -2.19833,-1.03199 -1.26134,0 -2.16229,0.80398 -2.16229,1.87197 0,2.12371 2.89507,1.72777 2.89507,2.78393 0,0.3599 -0.25227,0.64821 -0.74479,0.64821 -0.57661,0 -1.02108,-0.33636 -1.39348,-0.80438 z"
       inkscape:connector-curvature="0"
       style="fill:#161616;stroke-width:0.48051" />
    <path
       id="path2329"
       d="m 367.34745,-10.4459 c 0,1.47612 0.72077,2.32807 2.23438,2.32807 0.50453,0 0.86491,-0.0601 1.16523,-0.19221 v -1.33197 c -0.20421,0.0841 -0.48051,0.13214 -0.90095,0.13214 -0.60064,0 -0.96102,-0.2638 -0.96102,-0.93603 v -2.4718 h 1.84996 v -1.36796 h -1.84996 v -1.51197 h -1.53764 v 1.51197 h -1.12919 v 1.36796 h 1.12919 z"
       inkscape:connector-curvature="0"
       style="fill:#161616;stroke-width:0.48051" />
    <path
       id="path2331"
       d="m 375.50363,-15.24567 1.44153,-1.99195 h -1.65776 l -1.24932,1.99195 z m 2.05418,6.02411 -1.09316,-0.86444 c -0.32434,0.43246 -0.90095,0.72028 -1.56166,0.72028 -0.949,0 -1.64574,-0.456 -1.7899,-1.58424 h 4.2405 c 0.0481,-0.20374 0.0961,-0.51559 0.0961,-0.85194 0,-1.58381 -1.10518,-2.72377 -2.78696,-2.72377 -1.9821,0 -3.1113,1.47598 -3.1113,3.26386 0,1.76395 1.21328,3.2641 3.36357,3.2641 1.14121,0 2.0782,-0.46801 2.6428,-1.22385 z m -2.93111,-4.05613 c 0.85291,0 1.29738,0.61197 1.3214,1.224 h -2.78695 c 0.16817,-0.79203 0.68472,-1.224 1.46555,-1.224 z"
       inkscape:connector-curvature="0"
       style="fill:#161616;stroke-width:0.48051" />
    <path
       id="path2333"
       d="m 378.94024,-8.23796 h 1.52562 v -3.87579 c 0.22824,-0.38398 0.70875,-0.79198 1.45354,-0.79198 0.27629,0 0.48051,0.036 0.67271,0.084 v -1.50001 c -0.14415,-0.048 -0.32434,-0.084 -0.52856,-0.084 -0.68472,0 -1.20127,0.31199 -1.59769,0.72 v -0.59997 h -1.52562 z"
       inkscape:connector-curvature="0"
       style="fill:#161616;stroke-width:0.48051" />
    <path
       id="path2335"
       d="m 384.58959,-15.34168 c 0.54058,0 0.98505,-0.45595 0.98505,-0.99595 0,-0.54 -0.44447,-0.996 -0.98505,-0.996 -0.54057,0 -0.99705,0.456 -0.99705,0.996 0,0.54 0.45648,0.99595 0.99705,0.99595 z m -0.76881,7.10372 h 1.52562 v -6.0477 h -1.52562 z"
       inkscape:connector-curvature="0"
       style="fill:#161616;stroke-width:0.48051" />
    <path
       id="path2337"
       d="m 392.74962,-9.22156 -1.09316,-0.86444 c -0.32435,0.43246 -0.90096,0.72028 -1.56166,0.72028 -0.94901,0 -1.64575,-0.456 -1.7899,-1.58424 h 4.2405 c 0.0481,-0.20374 0.0961,-0.51559 0.0961,-0.85194 0,-1.58381 -1.10517,-2.72377 -2.78696,-2.72377 -1.9821,0 -3.1113,1.47598 -3.1113,3.26386 0,1.76395 1.21329,3.2641 3.36357,3.2641 1.14121,0 2.07821,-0.46801 2.64281,-1.22385 z m -2.93112,-4.05613 c 0.85291,0 1.29738,0.61197 1.32141,1.224 h -2.78696 c 0.16818,-0.79203 0.68473,-1.224 1.46555,-1.224 z"
       inkscape:connector-curvature="0"
       style="fill:#161616;stroke-width:0.48051" />
    <path
       id="path2339"
       d="m 394.13252,-8.23796 h 1.52562 v -8.99966 h -1.52562 z"
       inkscape:connector-curvature="0"
       style="fill:#161616;stroke-width:0.48051" />
    <path
       id="path2341"
       d="m 397.48744,-8.23796 h 1.52562 v -8.99966 h -1.52562 z"
       inkscape:connector-curvature="0"
       style="fill:#161616;stroke-width:0.48051" />
    <path
       id="path2343"
       d="m 406.41628,-9.22156 -1.09316,-0.86444 c -0.32434,0.43246 -0.90096,0.72028 -1.56166,0.72028 -0.949,0 -1.64574,-0.456 -1.7899,-1.58424 h 4.2405 c 0.0481,-0.20374 0.0961,-0.51559 0.0961,-0.85194 0,-1.58381 -1.10518,-2.72377 -2.78696,-2.72377 -1.98211,0 -3.1113,1.47598 -3.1113,3.26386 0,1.76395 1.21328,3.2641 3.36357,3.2641 1.14121,0 2.0782,-0.46801 2.6428,-1.22385 z m -2.93111,-4.05613 c 0.85291,0 1.29738,0.61197 1.3214,1.224 h -2.78696 c 0.16818,-0.79203 0.68473,-1.224 1.46556,-1.224 z"
       inkscape:connector-curvature="0"
       style="fill:#161616;stroke-width:0.48051" />
    <path
       id="path2345"
       d="m 308.26154,0.73797 c 0,1.76395 1.16524,3.2641 3.07527,3.2641 0.81686,0 1.40549,-0.25227 1.87399,-0.72028 v 0.48003 h 1.53763 v -8.99948 h -1.53763 v 3.43181 c -0.4685,-0.46802 -1.05713,-0.72029 -1.87399,-0.72029 -1.91003,0 -3.07527,1.50015 -3.07527,3.26411 z m 1.5977,0 c 0,-1.05617 0.6607,-1.82402 1.6938,-1.82402 0.68472,0 1.24932,0.28831 1.65776,0.83993 v 1.96817 c -0.40844,0.55211 -0.97304,0.83993 -1.65776,0.83993 -1.0331,0 -1.6938,-0.76785 -1.6938,-1.82401 z"
       inkscape:connector-curvature="0"
       style="fill:#161616;stroke-width:0.48051" />
    <path
       id="path2347"
       d="m 320.56548,1.14592 c 0,0.87597 -0.45648,1.41606 -1.28536,1.41606 -0.8409,0 -1.29738,-0.54009 -1.29738,-1.41606 v -3.4318 h -1.53763 v 3.35972 c 0,1.81201 1.04511,2.92823 2.82299,2.92823 1.77789,0 2.83501,-1.11622 2.83501,-2.92823 v -3.35972 h -1.53763 z"
       inkscape:connector-curvature="0"
       style="fill:#161616;stroke-width:0.48051" />
    <path
       id="path2349"
       d="m 327.02978,3.76182 h 1.52562 v -3.94787 c 0.22824,-0.38393 0.63668,-0.9 1.40549,-0.9 0.74479,0 1.20128,0.50405 1.20128,1.30795 v 3.53992 h 1.53763 V 0.16183 c 0,-1.78797 -1.04511,-2.68797 -2.3545,-2.68797 -0.80485,0 -1.36945,0.31233 -1.7899,0.72029 v -0.48003 h -1.52562 z"
       inkscape:connector-curvature="0"
       style="fill:#161616;stroke-width:0.48051" />
    <path
       id="path2351"
       d="m 338.42027,1.14592 c 0,0.87597 -0.45648,1.41606 -1.28536,1.41606 -0.84089,0 -1.29738,-0.54009 -1.29738,-1.41606 v -3.4318 h -1.53763 v 3.35972 c 0,1.81201 1.04511,2.92823 2.823,2.92823 1.77788,0 2.835,-1.11622 2.835,-2.92823 v -3.35972 h -1.53763 z"
       inkscape:connector-curvature="0"
       style="fill:#161616;stroke-width:0.48051" />
    <path
       id="path2353"
       d="m 341.6469,3.76182 h 1.52562 v -3.94787 c 0.22824,-0.38393 0.58862,-0.9 1.28536,-0.9 0.68473,0 1.08115,0.456 1.08115,1.1883 v 3.65957 h 1.53763 V 0.04219 c 0,-0.0961 0,-0.18019 -0.012,-0.26428 0.24025,-0.40796 0.60063,-0.86396 1.26134,-0.86396 0.68472,0 1.08114,0.456 1.08114,1.1883 v 3.65957 h 1.53764 V 0.04219 c 0,-1.70389 -0.98505,-2.56833 -2.23438,-2.56833 -1.02108,0 -1.59769,0.45601 -2.03015,0.98409 -0.39642,-0.64773 -1.06914,-0.98409 -1.83795,-0.98409 -0.74479,0 -1.26134,0.30032 -1.66977,0.69626 v -0.456 h -1.52562 z"
       inkscape:connector-curvature="0"
       style="fill:#161616;stroke-width:0.48051" />
    <path
       id="path2355"
       d="m 356.20587,-3.24594 1.44153,-1.99172 h -1.65776 l -1.24933,1.99172 z m 2.05418,6.02415 -1.09316,-0.86444 c -0.32434,0.43198 -0.90096,0.72029 -1.56166,0.72029 -0.94901,0 -1.64574,-0.45601 -1.7899,-1.58424 h 4.2405 c 0.048,-0.20374 0.0961,-0.51559 0.0961,-0.85195 0,-1.58376 -1.10517,-2.72401 -2.78695,-2.72401 -1.98211,0 -3.11131,1.47613 -3.11131,3.26411 0,1.76395 1.21329,3.2641 3.36357,3.2641 1.14122,0 2.07821,-0.46802 2.64281,-1.22386 z m -2.93111,-4.05598 c 0.8529,0 1.29738,0.61169 1.3214,1.22386 h -2.78696 c 0.16818,-0.79189 0.68473,-1.22386 1.46556,-1.22386 z"
       inkscape:connector-curvature="0"
       style="fill:#161616;stroke-width:0.48051" />
    <path
       id="path2357"
       d="m 359.64248,3.76182 h 1.52562 v -3.8758 c 0.22824,-0.38393 0.70875,-0.79188 1.45354,-0.79188 0.27629,0 0.48051,0.036 0.67271,0.0841 v -1.50015 c -0.14415,-0.048 -0.32434,-0.0841 -0.52856,-0.0841 -0.68472,0 -1.20127,0.31185 -1.59769,0.72028 v -0.60015 h -1.52562 z"
       inkscape:connector-curvature="0"
       style="fill:#161616;stroke-width:0.48051" />
    <path
       id="path2359"
       d="m 365.29183,-3.34204 c 0.54058,0 0.98505,-0.45601 0.98505,-0.99562 0,-0.54009 -0.44447,-0.9961 -0.98505,-0.9961 -0.54057,0 -0.99706,0.45601 -0.99706,0.9961 0,0.53961 0.45649,0.99562 0.99706,0.99562 z m -0.76881,7.10386 h 1.52562 v -6.0477 h -1.52562 z"
       inkscape:connector-curvature="0"
       style="fill:#161616;stroke-width:0.48051" />
    <path
       id="path2361"
       d="m 367.44548,0.73797 c 0,1.76395 1.15322,3.2641 3.07526,3.2641 0.81687,0 1.40549,-0.26428 1.87399,-0.7323 v 3.4443 h 1.53763 v -8.99995 h -1.53763 v 0.49204 c -0.4685,-0.46802 -1.05712,-0.7323 -1.87399,-0.7323 -1.92204,0 -3.07526,1.50015 -3.07526,3.26411 z m 1.58568,0 c 0,-1.05617 0.6607,-1.82402 1.6938,-1.82402 0.68473,0 1.26134,0.30032 1.66977,0.86396 v 1.92011 c -0.37239,0.55211 -0.96102,0.86396 -1.66977,0.86396 -1.0331,0 -1.6938,-0.76785 -1.6938,-1.82401 z"
       inkscape:connector-curvature="0"
       style="fill:#161616;stroke-width:0.48051" />
    <path
       id="path2363"
       d="m 379.74942,1.14592 c 0,0.87597 -0.45649,1.41606 -1.28537,1.41606 -0.84089,0 -1.29737,-0.54009 -1.29737,-1.41606 v -3.4318 h -1.53764 v 3.35972 c 0,1.81201 1.04511,2.92823 2.823,2.92823 1.77789,0 2.83501,-1.11622 2.83501,-2.92823 v -3.35972 h -1.53763 z"
       inkscape:connector-curvature="0"
       style="fill:#161616;stroke-width:0.48051" />
    <path
       id="path2365"
       d="M 388.54996,2.77821 387.4568,1.91377 c -0.32435,0.43198 -0.90096,0.72029 -1.56166,0.72029 -0.94901,0 -1.64575,-0.45601 -1.7899,-1.58424 h 4.2405 c 0.0481,-0.20374 0.0961,-0.51559 0.0961,-0.85195 0,-1.58376 -1.10517,-2.72401 -2.78695,-2.72401 -1.98211,0 -3.11131,1.47613 -3.11131,3.26411 0,1.76395 1.21329,3.2641 3.36357,3.2641 1.14121,0 2.07821,-0.46802 2.64281,-1.22386 z m -2.93111,-4.05598 c 0.8529,0 1.29737,0.61169 1.3214,1.22386 h -2.78696 c 0.16818,-0.79189 0.68473,-1.22386 1.46556,-1.22386 z"
       inkscape:connector-curvature="0"
       style="fill:#161616;stroke-width:0.48051" />
  </g>
</svg>
