<?xml version="1.0" encoding="UTF-8" standalone="no"?>
<svg
   xmlns:dc="http://purl.org/dc/elements/1.1/"
   xmlns:cc="http://creativecommons.org/ns#"
   xmlns:rdf="http://www.w3.org/1999/02/22-rdf-syntax-ns#"
   xmlns:svg="http://www.w3.org/2000/svg"
   xmlns="http://www.w3.org/2000/svg"
   xmlns:sodipodi="http://sodipodi.sourceforge.net/DTD/sodipodi-0.dtd"
   xmlns:inkscape="http://www.inkscape.org/namespaces/inkscape"
   id="Calque_1"
   data-name="Calque 1"
   width="158.12582"
   height="172"
   viewBox="0 0 118.59438 128.99999"
   version="1.1"
   sodipodi:docname="min-mer-logo.svg"
   inkscape:version="0.92.5 (2060ec1f9f, 2020-04-08)">
  <metadata
     id="metadata992">
    <rdf:RDF>
      <cc:Work
         rdf:about="">
        <dc:format>image/svg+xml</dc:format>
        <dc:type
           rdf:resource="http://purl.org/dc/dcmitype/StillImage" />
        <dc:title>MINMER</dc:title>
      </cc:Work>
    </rdf:RDF>
  </metadata>
  <defs
     id="defs990" />
  <sodipodi:namedview
     pagecolor="#ffffff"
     bordercolor="#666666"
     borderopacity="1"
     objecttolerance="10"
     gridtolerance="10"
     guidetolerance="10"
     inkscape:pageopacity="0"
     inkscape:pageshadow="2"
     inkscape:window-width="1916"
     inkscape:window-height="1036"
     id="namedview988"
     showgrid="false"
     units="px"
     fit-margin-bottom="100"
     fit-margin-right="0.2"
     inkscape:zoom="0.85065172"
     inkscape:cx="-334.57428"
     inkscape:cy="47.474272"
     inkscape:window-x="0"
     inkscape:window-y="18"
     inkscape:window-maximized="0"
     inkscape:current-layer="Calque_1" />
  <title
     id="title929">MINMER</title>
  <rect
     style="fill:#ffffff;fill-opacity:1;stroke:none;stroke-width:0.75;stroke-opacity:1"
     id="rect4733"
     width="118.59437"
     height="129"
     x="0"
     y="1.5368041e-06" />
  <g
     id="g4731"
     transform="translate(0,-12)">
    <g
       transform="matrix(0.281,0,0,0.281,-0.30762869,11.737075)"
       id="g967">
      <g
         id="g949">
        <path
           inkscape:connector-curvature="0"
           id="path931"
           d="m 62.55957,138.07874 h 10.082 l 9.74024,16.74659 9.74023,-16.74659 h 10.082 v 39.87256 h -8.08783 v -28.59424 l -8.88672,14.92334 h -5.69531 l -8.88672,-14.92334 v 28.59424 h -8.08789 z" />
        <path
           inkscape:connector-curvature="0"
           id="path933"
           d="m 113.36621,138.07874 h 8.08789 v 39.87256 h -8.08789 z" />
        <path
           inkscape:connector-curvature="0"
           id="path935"
           d="M 132.6748,138.07874 H 143.042 L 160.87012,166.901 V 138.07874 H 168.959 V 177.9513 H 158.5918 L 140.7627,149.129 v 28.8223 h -8.0879 z" />
        <path
           inkscape:connector-curvature="0"
           id="path937"
           d="m 180.17773,138.07874 h 8.08789 v 39.87256 h -8.08789 z" />
        <path
           inkscape:connector-curvature="0"
           id="path939"
           d="m 201.76465,167.01478 c 2.39258,3.07568 5.582,4.89844 8.8291,4.89844 3.18945,0 5.126,-1.7085 5.126,-4.55664 0,-7.34815 -18.11328,-5.3545 -18.11328,-18.854 0,-6.32275 5.24023,-11.563 12.873,-11.563 a 17.69735,17.69735 0 0 1 13.95606,6.72119 l -5.92481,5.3545 c -2.335,-3.019 -4.95508,-5.0127 -7.97461,-5.0127 -2.84765,0 -4.72754,1.82276 -4.72754,4.21484 0,7.23438 18.11426,5.1836 18.11426,18.8545 -0.11426,7.51855 -5.9248,12.01855 -13.27246,12.01855 -6.72168,0 -11.22168,-2.44922 -14.75293,-6.66455 z" />
        <path
           inkscape:connector-curvature="0"
           id="path941"
           d="m 228.36328,138.07874 h 32.69629 v 7.34766 h -12.30371 v 32.5249 H 240.667 v -32.5249 h -12.30372 z" />
        <path
           inkscape:connector-curvature="0"
           id="path943"
           d="m 268.23535,138.07874 h 23.24024 v 6.72119 h -15.15235 v 9.45557 h 12.874 v 6.72119 h -12.874 v 10.25342 h 15.15235 v 6.72119 h -23.24024 z m 0.6836,-11.10742 h 8.3164 l 6.43653,7.68945 h -7.40528 z" />
        <path
           inkscape:connector-curvature="0"
           id="path945"
           d="m 300.92871,138.07874 h 12.18945 c 8.77246,0 14.1836,4.49951 14.1836,11.90479 a 10.69958,10.69958 0 0 1 -6.43653,10.31006 l 12.47364,17.65771 h -9.51172 L 313.1748,161.83118 h -4.1582 v 16.12012 h -8.08789 z m 8.08789,6.72119 V 155.11 h 4.55762 c 3.417,0 5.41113,-1.99365 5.41113,-5.24072 0,-3.01855 -1.99414,-5.06934 -5.41113,-5.06934 z" />
        <path
           inkscape:connector-curvature="0"
           id="path947"
           d="m 338.52148,138.07874 h 23.24024 v 6.72119 h -15.15234 v 9.45557 h 12.874 v 6.72119 h -12.874 v 10.25342 h 15.15234 v 6.72119 h -23.24024 z" />
      </g>
      <g
         id="g965">
        <path
           inkscape:connector-curvature="0"
           id="path951"
           d="m 62.55957,195.72327 h 15.66406 c 12.64551,0 21.18946,9.17041 21.18946,19.936 0,10.76559 -8.54395,19.93652 -21.18946,19.93652 H 62.55957 Z m 8.08789,7.34766 v 25.17725 h 7.69043 a 12.58976,12.58976 0 1 0 0,-25.17725 z" />
        <path
           inkscape:connector-curvature="0"
           id="path953"
           d="m 107.27148,195.72327 h 23.24024 v 6.7212 h -15.15234 v 9.45605 h 12.874 v 6.7207 h -12.874 v 10.25391 h 15.15234 v 6.7207 h -23.24024 z" />
        <path
           inkscape:connector-curvature="0"
           id="path955"
           d="m 154.83105,195.72327 h 8.0879 v 32.52491 h 15.15234 v 7.34765 h -23.24024 z" />
        <path
           inkscape:connector-curvature="0"
           id="path957"
           d="m 195.3291,195.72327 h 10.59473 l 15.09472,39.87256 H 212.417 l -3.8164,-10.36621 h -15.94923 l -3.81637,10.36621 h -8.60058 z m 10.76563,22.61373 -5.46875,-14.981 -5.46778,14.981 z" />
        <path
           inkscape:connector-curvature="0"
           id="path959"
           d="m 242.09082,195.72327 h 10.082 l 9.74024,16.74659 9.74023,-16.74659 h 10.082 v 39.87256 h -8.08789 v -28.59424 l -8.88672,14.92334 h -5.69531 l -8.88672,-14.92334 v 28.59424 h -8.08789 z" />
        <path
           inkscape:connector-curvature="0"
           id="path961"
           d="m 292.89746,195.72327 h 23.24024 v 6.7212 h -15.15235 v 9.45605 h 12.874 v 6.7207 h -12.874 v 10.25391 h 15.15235 v 6.7207 h -23.24024 z" />
        <path
           inkscape:connector-curvature="0"
           id="path963"
           d="m 325.5918,195.72327 h 12.18945 c 8.77246,0 14.18359,4.49952 14.18359,11.90479 a 10.70025,10.70025 0 0 1 -6.43652,10.31055 l 12.47461,17.65722 h -9.5127 l -10.65234,-16.12011 h -4.1582 v 16.12011 h -8.08789 z m 8.08789,6.7212 V 212.755 h 4.55761 c 3.417,0 5.41114,-1.99414 5.41114,-5.24121 0,-3.01855 -1.99414,-5.06933 -5.41114,-5.06933 z" />
      </g>
    </g>
    <path
       d="m 30.66837,41.13631 c 0.0036,-0.0017 0.0072,-0.0045 0.01177,-0.0064 a 0.47471016,0.47471016 0 0 0 0.1105,-0.07245 c -0.0054,-0.0017 -0.009,-0.0028 -0.01267,-0.0036 -0.03714,0.02627 -0.07336,0.05343 -0.10959,0.08243"
       style="fill:#000091;stroke-width:0.28099999"
       id="path969"
       inkscape:connector-curvature="0" />
    <path
       d="m 36.163687,39.303533 c -0.01267,0.01 -0.02445,0.01902 -0.03714,0.0281 0.01992,-0.0018 0.03714,-0.0064 0.03714,-0.0281"
       style="fill:#000091;stroke-width:0.28099999"
       id="path971"
       inkscape:connector-curvature="0" />
    <path
       d="m 34.427928,41.221091 c 0.161232,-0.161241 0.324274,-0.334227 0.485506,-0.507239 h -0.0036 a 9.6084915,9.6084915 0 0 1 0.945649,-0.965578 3.0866052,3.0866052 0 0 1 0.307976,-0.245465 c 0.02898,-0.029 0.02898,-0.08605 0.05707,-0.114136 -0.141307,0.05708 -0.227352,0.170305 -0.368658,0.22736 -0.02807,0 -0.05616,-0.029 -0.02807,-0.05704 0.100542,-0.0761 0.201084,-0.152173 0.30253,-0.22736 h -0.01902 c -0.02807,0 -0.02807,-0.0281 -0.02807,-0.05617 -0.36956,-0.05704 -0.652162,0.19836 -0.907599,0.424807 -0.05706,0.029 -0.113224,-0.02806 -0.142206,-0.02806 -0.424816,0.141281 -0.736408,0.510858 -1.161219,0.680225 v -0.05614 c -0.170286,0.05614 -0.336047,0.158504 -0.510858,0.197451 a 3.0067253,3.0067253 0 0 1 -0.708322,0.029 9.2830261,9.2830261 0 0 0 -1.030787,0.183878 c -0.01,0.0017 -0.01992,0.0045 -0.02989,0.0072 a 2.3838719,2.3838719 0 0 0 -0.528075,0.211961 c -0.0063,0.0036 -0.01267,0.0081 -0.01902,0.01177 -0.0145,0.0172 -0.02807,0.03441 -0.04074,0.04889 a 0.69357544,0.69357544 0 0 1 -0.19475,0.169392 2.8830909,2.8830909 0 0 0 -0.470113,0.368638 0.08138603,0.08138603 0 0 1 -0.04529,0.01447 c -0.15217,0.145839 -0.302533,0.293479 -0.456516,0.436612 a 0.13681328,0.13681328 0 0 1 -0.08696,0.01087 l 0.0028,-0.0028 c 0.0055,-0.0091 0.01088,-0.01905 0.0163,-0.02717 0.02355,-0.03986 0.048,-0.07972 0.07246,-0.119582 0.0281,-0.04436 0.05526,-0.08876 0.08424,-0.132242 0.03895,-0.05796 0.0788,-0.116842 0.120473,-0.172101 a 0.02660227,0.02660227 0 0 0 -8.43e-4,-0.03712 0.05247394,0.05247394 0 0 0 -0.03896,-0.0154 2.6603984,2.6603984 0 0 1 0.475539,-0.354183 v -0.0045 c -0.01902,0.0064 -0.04619,-0.009 -0.0317,-0.02897 0.0172,-0.02538 0.0317,-0.05164 0.04801,-0.07699 0.0036,-0.0091 0.0063,-0.01723 0.0099,-0.0263 -0.0072,-0.0073 -0.0145,-0.01357 -0.02172,-0.02172 a 1.1154717,1.1154717 0 0 0 -0.133152,0.09238 c -0.06793,0.06159 -0.121392,0.186584 -0.223732,0.185705 a 0.15425214,0.15425214 0 0 1 -0.04347,-0.0064 0.08240325,0.08240325 0 0 1 -0.0299,-0.0099 c 0.0017,-0.002 0.0028,-0.0045 0.0045,-0.0064 l 0.0036,-0.0081 a 0.05025123,0.05025123 0 0 1 0.0045,-0.0073 l 0.01267,-0.02445 c 0.0045,-0.0081 0.009,-0.0154 0.0145,-0.02448 0.0036,-0.0063 0.0064,-0.0136 0.0099,-0.01992 0.0072,-0.01088 0.01357,-0.02355 0.02082,-0.03625 0.0045,-0.0072 0.01,-0.0163 0.0145,-0.02535 0.01267,-0.01992 0.02445,-0.04168 0.03623,-0.06159 0.0064,-0.0109 0.01177,-0.02085 0.01813,-0.03082 l 0.02989,-0.05161 a 0.03410216,0.03410216 0 0 0 -0.02082,-0.05072 0.63288787,0.63288787 0 0 1 0.193842,-0.168479 h -0.009 c 0.108696,-0.05526 0.217387,-0.121392 0.326083,-0.182968 0.0154,-0.01267 0.03079,-0.02627 0.0462,-0.03986 a 1.9119409,1.9119409 0 0 0 -0.450176,0.222833 0.19198763,0.19198763 0 0 0 -0.04801,0.02535 0.06923278,0.06923278 0 0 1 -0.07066,-0.02535 0.03654405,0.03654405 0 0 1 -0.0072,-0.02175 c 0.02807,-0.05614 0.114128,-0.08514 0.170286,-0.141281 0.02807,0 0.05707,0 0.05707,0.02807 0.906691,-0.708311 2.15396,-0.538944 3.20286,-0.906672 0.08514,-0.05617 0.169384,-0.113223 0.255429,-0.169393 0.141304,-0.05704 0.254527,-0.199276 0.42481,-0.284414 a 1.2396456,1.2396456 0 0 0 0.481885,-0.651257 0.09744518,0.09744518 0 0 0 -0.02899,-0.05708 4.364492,4.364492 0 0 1 -1.247269,0.935696 c -0.594194,0.311584 -1.246362,0.254502 -1.870446,0.33967 0.02898,-0.05617 0.08514,-0.05617 0.142209,-0.05617 0,-0.08514 0.05616,-0.113223 0.113223,-0.170286 h 0.08514 c 0.02807,0 0.02807,-0.05617 0.05616,-0.05617 0.05707,0 0.142206,-0.029 0.113223,-0.029 -0.08424,-0.114106 -0.254524,0.08517 -0.396732,0 0.05706,-0.05704 0.02898,-0.142186 0.08514,-0.170286 h 0.114128 a 0.19639933,0.19639933 0 0 1 0.05616,-0.113224 c 0.424816,-0.254529 0.821546,-0.453815 1.219189,-0.68025 -0.08514,0 -0.142206,0.08514 -0.227351,0.02808 0.05706,0 0,-0.08423 0.05706,-0.08423 0.311593,-0.08516 0.567025,-0.256356 0.878617,-0.369579 -0.113223,0 -0.198369,0.08605 -0.311592,0 0.05616,-0.02806 0.08514,-0.08423 0.169384,-0.08423 v -0.08514 c 0,-0.02808 0.02898,-0.02808 0.05706,-0.02808 a 0.10094925,0.10094925 0 0 1 -0.05706,-0.029 c 0.02898,-0.05614 0.114131,-0.02806 0.170286,-0.08422 -0.02807,0 -0.08424,0 -0.08424,-0.029 A 0.55844816,0.55844816 0 0 1 34.23603,37.57511 c -0.02807,-0.05797 -0.113224,0 -0.113224,-0.05797 0,-0.02809 0.02898,-0.02809 0.05706,-0.02809 h -0.05706 c -0.05707,-0.0281 -0.02807,-0.08514 -0.02807,-0.113223 a 1.9547091,1.9547091 0 0 0 0.254525,-0.680254 c -0.02807,0 -0.05616,0 -0.05616,-0.02808 -0.283506,0.312497 -0.737307,0.425715 -1.162123,0.538944 h -0.142386 a 0.57728078,0.57728078 0 0 1 -0.481884,-0.02897 1.9350587,1.9350587 0 0 1 -0.282601,-0.226447 3.2555396,3.2555396 0 0 0 -0.70923,-0.340572 6.3531768,6.3531768 0 0 0 -2.182044,-0.310701 4.6450902,4.6450902 0 0 1 0.991837,-0.284414 4.2243545,4.2243545 0 0 1 1.445638,-0.282588 0.9294637,0.9294637 0 0 0 -0.283515,0 4.6479226,4.6479226 0 0 0 -1.219191,0.169364 c -0.283507,0.05708 -0.538031,0.170306 -0.821546,0.226447 -0.170286,0.05708 -0.255429,0.22736 -0.453801,0.199274 v -0.08514 c 0.283515,-0.340572 0.623185,-0.681164 1.076986,-0.709222 a 5.3241857,5.3241857 0 0 1 1.501791,0.05704 7.2405579,7.2405579 0 0 1 1.07789,0.198361 c 0.141301,0 0.169379,0.226447 0.283507,0.254533 0.169387,0.05704 0.33967,0 0.509961,0.113223 0,-0.05617 -0.02807,-0.113223 0,-0.169392 0.113224,-0.113224 0.255429,0.02808 0.368656,-0.02806 0.226446,-0.14222 -0.19837,-0.397663 -0.312501,-0.596027 a 0.0970855,0.0970855 0 0 1 0.02899,-0.05614 3.2669257,3.2669257 0 0 0 0.680248,0.567002 c 0.141301,0.05617 0.481876,0.141307 0.424807,-0.02806 a 4.5031177,4.5031177 0 0 0 -0.651254,-0.850559 v -0.114105 c -0.05707,0 -0.05707,-0.02809 -0.08514,-0.05617 v -0.113226 c -0.114131,-0.05704 -0.08514,-0.170286 -0.142208,-0.255429 -0.08514,-0.141282 -0.02807,-0.340556 -0.08514,-0.509948 A 3.1162619,3.1162619 0 0 1 33.55565,33.46474 c -0.08424,-0.481892 -0.198369,-0.9067 -0.254524,-1.360506 -0.05707,-0.538944 0.311587,-0.963754 0.567022,-1.445644 a 2.418803,2.418803 0 0 1 0.793471,-0.907585 2.4894127,2.4894127 0 0 1 0.538039,-0.906697 2.3630217,2.3630217 0 0 1 0.874986,-0.56703 7.5338545,7.5338545 0 0 1 0.753617,-0.287123 H 17.246956 v 14.998937 h 13.904742 c 0.538958,-0.387684 1.077882,-0.573358 1.831499,-0.943823 0.355979,-0.17481 1.16937,-0.548922 1.444731,-0.824268 m -4.358645,-2.030787 c -0.05616,0 -0.170286,0.02809 -0.141309,-0.02808 0.0281,-0.142186 0.226447,-0.142186 0.33967,-0.198364 0.05707,-0.02808 0.142214,-0.08514 0.198369,-0.05704 0.05707,0.08514 0.142214,0.05704 0.198369,0.113226 -0.170286,0.170286 -0.396738,0.08514 -0.595099,0.170286 M 25.73236,38.567138 a 0.10196928,0.10196928 0 0 1 -0.02808,-0.05708 8.6781399,8.6781399 0 0 0 0.906702,-1.44561 3.8859631,3.8859631 0 0 0 0.963755,-0.793474 5.5362283,5.5362283 0 0 1 1.587849,-1.247283 1.0959197,1.0959197 0 0 1 0.736403,0.029 c -0.08514,0.113224 -0.226447,0.08423 -0.33967,0.169365 a 0.1041386,0.1041386 0 0 1 -0.08514,-0.02805 0.10502375,0.10502375 0 0 0 0.02807,-0.08517 c -0.283515,0.311629 -0.680245,0.452896 -0.906692,0.821563 -0.170286,0.283501 -0.283515,0.652167 -0.652167,0.737307 -0.113223,0.02808 0.02898,-0.08514 -0.0281,-0.05704 a 9.5909515,9.5909515 0 0 0 -2.182932,1.956482 m 2.353235,-1.871364 c -0.02807,0.05704 -0.05978,0.0625 -0.08514,0.113223 a 0.21789583,0.21789583 0 0 1 -0.113224,0.114137 c -0.02898,0 -0.05706,0 -0.05706,-0.02809 a 0.34357027,0.34357027 0 0 1 0.227351,-0.255443 c 0.02807,0 0.02807,0.0281 0.02807,0.05617 m 1.316111,4.247233 a 0.24798531,0.24798531 0 0 1 -0.06975,0.08243 c 0.03533,0.0072 0.0607,0.02355 0.03714,0.04348 a 0.5993449,0.5993449 0 0 1 -0.214684,0.150335 0.23403928,0.23403928 0 0 1 -0.04347,0.0055 c -0.03442,0.0335 -0.06975,0.06703 -0.105982,0.09874 -0.03352,0.03079 -0.18931,0.009 -0.141301,-0.03353 0.07156,-0.06338 0.138586,-0.132241 0.209241,-0.19745 a 1.543193,1.543193 0 0 0 0.117739,-0.11231 0.36621044,0.36621044 0 0 1 0.0607,-0.06341 c 0.02355,-0.0163 0.173,-0.02988 0.15036,0.02627 M 28.89354,40.708412 a 0.03930909,0.03930909 0 0 0 -0.0064,0.0055 c -0.106886,0.07427 -0.211955,0.15126 -0.324274,0.215583 -0.121392,0.07066 -0.248187,0.124087 -0.374092,0.183878 a 0.01829872,0.01829872 0 0 0 -0.0036,-0.0073 0.03771863,0.03771863 0 0 0 -0.04801,-0.01087 1.3621194,1.3621194 0 0 0 -0.285324,0.216496 c -0.01267,0.01264 -0.02627,0.02535 -0.03895,0.03895 l -0.0017,0.0017 -0.0028,0.0017 c -0.01357,0.01357 -0.02717,0.02717 -0.03985,0.04075 a 0.01817508,0.01817508 0 0 1 -0.0054,0.0036 l -0.0018,0.0028 c -0.01992,0.02082 -0.03985,0.04075 -0.0607,0.06703 a 0.17599873,0.17599873 0 0 1 -0.03805,0.03983 c -0.01811,0.0109 -0.06702,0.0109 -0.0625,-0.02172 9e-4,-0.0017 0,-0.0036 9e-4,-0.0055 -0.01722,0.0091 -0.03352,0.01812 -0.05073,0.0263 a 0.41383432,0.41383432 0 0 0 -0.04438,0.02355 0.068564,0.068564 0 0 0 -0.01903,-0.0028 0.03433258,0.03433258 0 0 0 -0.02083,0.0073 c -0.03442,0.02627 -0.06884,0.05526 -0.102351,0.08605 a 1.4334822,1.4334822 0 0 0 -0.164854,0.174838 l -0.0027,0.0028 -0.0054,0.0081 a 0.07864909,0.07864909 0 0 1 -0.0081,0.0099 0.13200818,0.13200818 0 0 1 -0.0091,0.01177 0.01216168,0.01216168 0 0 1 -0.0027,0.0036 c -0.0063,0.01 -0.01268,0.01902 -0.01902,0.0281 l -8.99e-4,0.0017 a 0.04492066,0.04492066 0 0 1 -0.02355,0.01177 c -0.0036,-0.0064 -0.0081,-0.01177 -0.01177,-0.01722 a 0.09679888,0.09679888 0 0 0 -0.0072,-0.01357 0.4407204,0.4407204 0 0 1 -0.02445,-0.04531 l -8.99e-4,-0.0017 a 0.07014322,0.07014322 0 0 1 -0.0063,-0.0145 c 0.0308,-0.0326 0.05978,-0.06703 0.08877,-0.101441 0.0018,-0.0028 0.0036,-0.0045 0.0054,-0.0072 0.01,-0.01177 0.01993,-0.02355 0.02989,-0.03625 0.0154,-0.0199 0.0317,-0.04075 0.0471,-0.06068 l 0.01721,-0.02265 c 0.0317,-0.04077 0.0607,-0.08063 0.08876,-0.118669 a 0.01277426,0.01277426 0 0 1 0.0027,-0.0036 0.20507942,0.20507942 0 0 1 0.01177,-0.0181 c 0.01359,-0.01992 0.02627,-0.04077 0.03895,-0.0607 0.01087,-0.01902 0.02174,-0.03712 0.0308,-0.05704 l 0.0018,-0.0036 a 0.04076467,0.04076467 0 0 1 0.0036,-0.0063 0.105375,0.105375 0 0 0 0.0045,-0.0099 c 0.01,-0.02172 0.01902,-0.04348 0.02718,-0.06704 a 0.02299142,0.02299142 0 0 1 0.0018,-0.0063 0.15846714,0.15846714 0 0 0 0.0064,-0.01887 c 0.0036,-0.0109 0.0063,-0.02085 0.0091,-0.0308 v -8.43e-4 c 8.99e-4,-0.0017 8.99e-4,-0.0045 0.0018,-0.0064 0.0036,-0.01357 0.0072,-0.02717 0.01,-0.04166 a 0.02240132,0.02240132 0 0 0 -0.0036,-0.01902 0.93444021,0.93444021 0 0 1 0.11231,-0.153083 l -0.01268,0.0073 c -0.04075,0.0263 -0.06793,0.0625 -0.105974,0.09059 -0.02989,0.02355 -0.08695,-0.01447 -0.05072,-0.04257 a 0.68736534,0.68736534 0 0 0 0.06521,-0.05797 0.01212796,0.01212796 0 0 1 0.0027,-0.0045 1.4417548,1.4417548 0 0 1 0.144024,-0.144018 c 0.0326,-0.02448 0.06159,-0.04348 0.08695,-0.06612 a 0.07829784,0.07829784 0 0 0 0.01268,-0.01177 0.68710963,0.68710963 0 0 1 0.0634,-0.07157 0.01241739,0.01241739 0 0 1 0.0036,-0.0028 c 0.270834,-0.261774 0.727349,-0.25 1.086037,-0.416655 0.141307,-0.05799 0.310685,0.02807 0.452894,0 a 0.42287128,0.42287128 0 0 1 0.25453,0.05614 c -0.25453,0.139485 -0.489126,0.296174 -0.721915,0.441119 m 0.580608,-1.971901 c -0.02807,-0.0281 0.08514,0 0.113223,-0.05614 h -0.226446 c -0.02807,0 -0.02807,-0.029 -0.02807,-0.05708 -0.142209,0.02808 -0.311593,0.08514 -0.453801,0.113223 -0.198369,0.05617 -0.368652,0.199274 -0.595099,0.255429 -0.311593,0.113224 -0.567022,0.367756 -0.906692,0.481862 -0.02899,0 -0.02899,-0.02806 -0.02899,-0.05704 0.02899,-0.08514 0.142214,-0.113226 0.198369,-0.198363 0,-0.02809 0,-0.05617 -0.02808,-0.05617 a 5.1052726,5.1052726 0 0 1 0.822451,-0.737307 v -0.08423 c 0.08424,-0.113223 0.226446,-0.170303 0.283515,-0.312497 a 0.50544875,0.50544875 0 0 1 0.283509,-0.25453 c -0.02899,-0.029 -0.08605,-0.029 -0.08605,-0.08514 -0.113223,0 -0.226447,0.05614 -0.33967,-0.02808 a 0.39656968,0.39656968 0 0 1 0.177533,-0.101441 0.10063453,0.10063453 0 0 1 -0.06431,-0.04166 c -0.0281,-0.05617 0.05435,-0.119582 0.142206,-0.141309 0.113223,-0.0281 0.254524,-0.0281 0.33967,-0.113223 -0.198369,-0.0281 -0.424816,0.05704 -0.623185,-0.05617 a 1.5073599,1.5073599 0 0 1 0.708331,-0.850531 c 0.02807,0 0.08514,0 0.08514,0.02809 a 0.275661,0.275661 0 0 1 -0.226447,0.283501 2.9613494,2.9613494 0 0 1 0.67934,0.169392 c -0.02807,0.05796 -0.08514,0.02988 -0.113223,0.02988 0.142214,0.08425 0.311592,0.02808 0.453798,0.141306 -0.08514,0.08514 -0.170286,0 -0.255429,0 0.878614,0.254533 1.81429,0.452894 2.551604,1.019923 a 7.7729855,7.7729855 0 0 1 -1.956505,0.595088 0.630283,0.630283 0 0 1 -0.226447,-0.02809 c 0,0.02809 0,0.08517 -0.02807,0.08517 a 0.47051202,0.47051202 0 0 0 -0.283506,0.05614 c -0.113223,0.05617 -0.283529,0.08514 -0.368672,0"
       style="fill:#000091;stroke-width:0.28099999"
       id="path973"
       inkscape:connector-curvature="0" />
    <path
       d="M 58.624408,27.989984 H 42.489615 a 0.76043096,0.76043096 0 0 1 0.152173,0.07065 c 0.131342,0.07065 0.301626,0.161238 0.407608,0.216466 a 1.3380883,1.3380883 0 0 1 0.540756,0.453815 c 0.05615,0.08514 0.141301,0.255443 0.08514,0.368672 -0.05706,0.142186 -0.08514,0.368641 -0.227352,0.42481 a 1.0528677,1.0528677 0 0 1 -0.595101,0.05704 1.4037046,1.4037046 0 0 1 -0.340572,-0.05704 2.3133466,2.3133466 0 0 1 1.105968,0.765391 c 0.02807,0.05704 0.141301,0.08514 0.255429,0.08514 0.02807,0 0.02807,0.05617 0.02807,0.08605 -0.05706,0.05617 -0.113224,0.08423 -0.08514,0.169393 h 0.08514 c 0.141309,-0.05617 0.113223,-0.340572 0.311592,-0.255429 a 0.3201433,0.3201433 0 0 1 0.113224,0.425715 3.1289743,3.1289743 0 0 1 -0.33967,0.283501 0.24415809,0.24415809 0 0 0 0,0.198386 0.86440658,0.86440658 0 0 1 0.1413,0.33967 c 0.08514,0.198363 0.114137,0.42481 0.19837,0.62317 a 4.0117583,4.0117583 0 0 1 0.199274,1.275341 c 0,0.227358 -0.114129,0.425715 -0.02898,0.652168 a 2.3763018,2.3763018 0 0 0 0.311593,0.595113 4.1860373,4.1860373 0 0 1 0.311587,0.453815 c 0.170286,0.283501 0.482788,0.567002 0.340572,0.906672 -0.08514,0.199273 -0.396733,0.171216 -0.595102,0.284439 -0.170286,0.141281 -0.02807,0.367728 0.05707,0.509948 0.141301,0.255429 -0.170286,0.42481 -0.368672,0.509947 0.05616,0.08514 0.169387,0.05617 0.198369,0.114137 0.02807,0.141309 0.170286,0.226446 0.08514,0.367756 -0.114128,0.170286 -0.453798,0.255429 -0.283529,0.510858 a 0.75181269,0.75181269 0 0 1 -0.02807,0.623171 0.701938,0.701938 0 0 1 -0.510858,0.425715 1.169522,1.169522 0 0 1 -0.538938,0.02808 0.4045557,0.4045557 0 0 0 -0.169384,-0.05704 12.560953,12.560953 0 0 0 -1.445638,-0.198361 1.5867087,1.5867087 0 0 0 -0.39673,0.113223 2.6033919,2.6033919 0 0 0 -0.343301,0.30343 c -8.43e-4,0.0018 -0.0028,0.0027 -0.0036,0.0036 -0.02085,0.02264 -0.04166,0.04528 -0.06159,0.06884 -0.01267,0.0136 -0.02445,0.029 -0.03714,0.04348 l -0.02355,0.029 a 2.6653131,2.6653131 0 0 0 -0.222819,0.326983 c -0.0045,0.0072 -0.009,0.01447 -0.01267,0.02172 -0.0072,0.01267 -0.0145,0.02627 -0.02265,0.03986 a 2.715466,2.715466 0 0 0 -0.213765,0.519926 c -0.192932,0.649458 -0.108699,1.205597 0.02627,1.340575 0.03805,0.03804 0.935677,0.315206 1.561576,0.594203 a 5.1014286,5.1014286 0 0 1 0.668471,0.337846 h 15.844941 z"
       style="fill:#e1000f;stroke-width:0.28099999"
       id="path975"
       inkscape:connector-curvature="0" />
    <path
       d="m 43.448938,33.461942 c 0.113226,0.02806 0.28351,0.02806 0.28351,0.08514 -0.05706,0.22736 -0.396733,0.283501 -0.567022,0.509947 h -0.08514 c -0.08514,0.05708 -0.05706,0.199274 -0.141301,0.199274 a 0.4045838,0.4045838 0 0 0 -0.255429,0.0281 0.48841172,0.48841172 0 0 0 0.425715,0.170286 0.125607,0.125607 0 0 1 0.08424,0.113223 0.08690206,0.08690206 0 0 0 0.05707,-0.02897 c 0.02807,0 0.05706,0 0.05706,0.02897 v 0.113224 c -0.08514,0.113223 -0.227352,0.05617 -0.340572,0.08425 a 1.2399687,1.2399687 0 0 0 0.651262,0 c 0.170286,-0.05617 0,-0.33967 0.114128,-0.480979 -0.05706,0 0,-0.08605 -0.05706,-0.08605 0.05706,-0.05617 0.113223,-0.141309 0.170286,-0.169393 a 0.20026027,0.20026027 0 0 0 0.169386,-0.08514 c 0,-0.05614 -0.113223,-0.08514 -0.08424,-0.141307 0.170286,-0.113223 0.311593,-0.284414 0.254525,-0.453778 -0.02807,-0.08517 -0.254525,-0.08517 -0.39673,-0.14131 a 0.94119264,0.94119264 0 0 0 -0.48098,0.02809 2.3679392,2.3679392 0 0 0 -0.425715,0.113224 1.955701,1.955701 0 0 0 -0.538938,0.2835 3.9754278,3.9754278 0 0 1 0.624084,-0.170286 1.8645839,1.8645839 0 0 1 0.481881,0"
       style="fill:#808080;stroke-width:0.28099999"
       id="path977"
       inkscape:connector-curvature="0" />
    <path
       style="stroke-width:0.28099999"
       d="m 54.046828,109.17044 c 0.306155,0 0.571554,0.23279 0.431152,0.82065 l -1.426611,0.33151 c 0.249092,-0.66303 0.663944,-1.15216 0.995459,-1.15216 m 0.788036,2.29708 h -0.282607 c -0.355974,0.423 -0.737307,0.75362 -1.118661,0.75362 -0.389488,0 -0.588754,-0.23189 -0.588754,-0.75362 a 3.1054603,3.1054603 0 0 1 0.06612,-0.63042 l 2.296167,-0.75453 c 0.447464,-1.06068 -0.09058,-1.52535 -0.721004,-1.52535 -1.086037,0 -2.32153,1.81521 -2.32153,3.40758 0,0.71285 0.33967,1.10233 0.870463,1.10233 0.622271,0 1.268996,-0.60506 1.799805,-1.59961 m -0.456513,-3.3333 1.616826,-1.50904 v -0.17392 h -0.870462 l -0.995459,1.68296 z m -4.95738,1.06158 h 0.762677 l -1.21013,3.30793 a 0.38372517,0.38372517 0 0 0 0.331516,0.5634 c 0.687494,0 1.798891,-0.67934 2.188383,-1.60867 h -0.215578 a 3.0096224,3.0096224 0 0 1 -1.401251,0.846 l 1.1114,-3.10866 h 1.134959 l 0.1413,-0.47281 h -1.10234 l 0.423,-1.19384 h -0.439301 l -0.788036,1.19384 -0.93659,0.13224 z m -1.028063,-0.15761 a 0.33992289,0.33992289 0 0 0 -0.273548,-0.48097 c -0.663039,0 -1.45107,0.59692 -1.765377,1.43387 h 0.215575 a 1.6805346,1.6805346 0 0 1 0.920275,-0.70379 l -1.268996,3.29887 a 0.3306246,0.3306246 0 0 0 0.27355,0.48096 c 0.630427,0 1.36774,-0.60506 1.682954,-1.43385 h -0.215583 a 1.6938849,1.6938849 0 0 1 -0.920275,0.7047 z m 0.232786,-1.65849 a 0.5464045,0.5464045 0 0 0 0.547107,-0.5462 0.5475485,0.5475485 0 1 0 -1.095097,0 0.541487,0.541487 0 0 0 0.547998,0.5462 m -7.304275,5.07421 c -0.165764,0.37319 0.0081,0.61322 0.373168,0.61322 a 0.37010229,0.37010229 0 0 0 0.414852,-0.298 l 0.878614,-2.33058 c 0.405792,-0.49729 1.243647,-1.02808 1.575162,-1.02808 0.240033,0 0.207432,0.19927 0.04982,0.49818 l -1.35143,2.59509 a 0.38054706,0.38054706 0 0 0 0.331515,0.5634 c 0.663039,0 1.451084,-0.59691 1.76629,-1.43385 h -0.216488 a 1.6919909,1.6919909 0 0 1 -0.919376,0.7047 l 1.16032,-2.34691 a 1.8774003,1.8774003 0 0 0 0.223723,-0.80434 0.57101167,0.57101167 0 0 0 -0.613212,-0.62953 c -0.572462,0 -1.153069,0.64674 -1.84055,1.44294 v -0.61412 c 0,-0.43931 -0.141301,-0.82881 -0.538958,-0.82881 -0.249087,0 -0.48912,0.21559 -0.712852,0.52174 v 0.0833 c 0.431155,-0.0245 0.62137,0.62227 0.31431,1.30161 z m -0.0163,-2.88582 c 0.15761,-0.53805 0.07428,-1.01087 -0.33967,-1.01087 -0.489125,0 -0.614117,0.37318 -1.111397,1.44293 v -0.61412 c 0,-0.43931 -0.140396,-0.8288 -0.538958,-0.8288 -0.463762,0 -0.88676,0.72101 -1.210129,1.43387 h 0.215578 c 0.223729,-0.32247 0.431152,-0.51359 0.596917,-0.51359 0.199265,0 0.307057,0.30707 0,0.98641 l -0.894924,1.99 c -0.166663,0.37319 0.0081,0.61323 0.37228,0.61323 a 0.36911598,0.36911598 0 0 0 0.414852,-0.29801 l 0.878614,-2.33058 c 0.249092,-0.30615 0.472816,-0.57156 0.754521,-0.87046 z m -5.09052,-0.39765 c 0.30706,0 0.572453,0.23279 0.43206,0.82065 l -1.426614,0.33151 c 0.249087,-0.66303 0.663033,-1.15216 0.994554,-1.15216 m 0.788031,2.29708 H 36.72094 c -0.35687,0.423 -0.738218,0.75362 -1.119554,0.75362 -0.389489,0 -0.588763,-0.23189 -0.588763,-0.75362 a 3.1051006,3.1051006 0 0 1 0.06703,-0.63042 l 2.296175,-0.75453 c 0.447461,-1.06068 -0.09148,-1.52535 -0.721912,-1.52535 -1.085137,0 -2.32063,1.81521 -2.32063,3.40758 0,0.71285 0.33967,1.10233 0.870459,1.10233 0.621376,0 1.268106,-0.60506 1.798895,-1.59961 m -5.412982,-2.27172 h 0.761769 l -1.210138,3.30793 a 0.38404832,0.38404832 0 0 0 0.331524,0.5634 c 0.688394,0 1.798895,-0.67934 2.188383,-1.60867 h -0.215578 a 3.0051489,3.0051489 0 0 1 -1.401257,0.846 l 1.111406,-3.10866 h 1.135855 l 0.141301,-0.47281 H 33.32967 l 0.423006,-1.19384 h -0.439307 l -0.787126,1.19384 -0.936573,0.13224 z m -4.187462,2.57788 c 0,-1.01901 1.135856,-2.40396 1.774437,-2.40396 a 1.4140285,1.4140285 0 0 1 0.389488,0.0498 l -0.663031,1.76537 c -0.381342,0.46467 -0.970104,1.02807 -1.243647,1.02807 -0.15761,0 -0.257247,-0.13224 -0.257247,-0.4393 m 3.490004,-3.40758 -0.347825,-0.0245 -0.389491,0.38134 h -0.08333 c -1.889472,0 -3.522616,2.12225 -3.522616,3.6648 a 0.62731002,0.62731002 0 0 0 0.67934,0.67934 c 0.489129,0 0.970099,-0.69655 1.509043,-1.44201 l -0.02537,0.2654 c -0.06521,0.76267 0.165759,1.17661 0.564307,1.17661 0.46467,0 0.886769,-0.721 1.210132,-1.43385 h -0.215577 c -0.223733,0.32336 -0.431153,0.51358 -0.596912,0.51358 -0.173911,0 -0.298006,-0.31522 0,-0.98641 z m -4.028043,1.20199 c 0.15761,-0.53805 0.07427,-1.01087 -0.340572,-1.01087 -0.489128,0 -0.613215,0.37319 -1.110495,1.44293 v -0.61412 c 0,-0.4393 -0.141301,-0.8288 -0.538958,-0.8288 -0.46467,0 -0.886763,0.72101 -1.210129,1.43387 h 0.215575 c 0.223732,-0.32247 0.431152,-0.51359 0.596917,-0.51359 0.198363,0 0.306155,0.30707 0,0.98641 l -0.895828,1.99001 c -0.165757,0.37318 0.0091,0.61322 0.373184,0.61322 a 0.37010229,0.37010229 0 0 0 0.414849,-0.298 l 0.878617,-2.33059 c 0.248188,-0.30615 0.472822,-0.57155 0.754519,-0.87046 z m -6.350479,3.33327 0.08243,-0.25724 c -1.102341,-0.20743 -1.242737,-0.20743 -0.80343,-1.40939 l 0.447459,-1.2346 h 1.218281 c 0.547107,0 0.556155,0.22374 0.472825,0.81974 h 0.315212 l 0.729158,-1.99725 h -0.314296 c -0.274455,0.47281 -0.489125,0.82063 -1.086944,0.82063 h -1.201992 l 0.638578,-1.74907 c 0.199274,-0.55615 0.315215,-0.6721 1.061585,-0.6721 h 0.529884 c 0.77173,0 0.862308,0.20743 0.862308,0.98641 h 0.307062 l 0.257245,-1.35958 h -4.576035 l -0.08334,0.25814 c 0.886766,0.18206 0.970102,0.26539 0.555256,1.4085 l -0.994554,2.71918 c -0.414849,1.13585 -0.588763,1.22733 -1.608678,1.40939 l -0.07428,0.25724 z"
       id="path979"
       inkscape:connector-curvature="0" />
    <path
       style="stroke-width:0.28099999"
       d="m 42.946406,98.807966 c 0.30706,0 0.571554,0.232792 0.431153,0.820635 l -1.425707,0.33153 c 0.248182,-0.663045 0.663033,-1.152165 0.994554,-1.152165 m 0.788031,2.296174 h -0.282602 c -0.355973,0.423 -0.737313,0.75451 -1.118661,0.75451 -0.389491,0 -0.588765,-0.23188 -0.588765,-0.75451 a 3.103083,3.103083 0 0 1 0.06613,-0.62953 l 2.296169,-0.754512 c 0.447461,-1.060683 -0.09058,-1.525353 -0.721007,-1.525353 -1.086042,0 -2.321535,1.815195 -2.321535,3.407565 0,0.71286 0.340572,1.10144 0.87046,1.10144 0.62228,0 1.26901,-0.60415 1.799805,-1.59961 m -0.456516,-3.332392 1.616835,-1.509043 v -0.173911 h -0.87047 l -0.995459,1.682954 z m -4.957371,1.060668 h 0.76269 l -1.210129,3.307934 a 0.38352566,0.38352566 0 0 0 0.331515,0.5634 c 0.6884,0 1.798895,-0.67934 2.188383,-1.60776 h -0.215577 a 3.0141634,3.0141634 0 0 1 -1.400352,0.84599 l 1.110512,-3.109564 h 1.135855 l 0.140396,-0.471911 h -1.102346 l 0.423006,-1.193823 H 40.04519 l -0.788031,1.193823 -0.936587,0.132241 z M 37.29247,98.674811 a 0.33940304,0.33940304 0 0 0 -0.273542,-0.480066 c -0.66304,0 -1.450171,0.596912 -1.765386,1.433856 h 0.215578 a 1.679596,1.679596 0 0 1 0.920275,-0.703789 l -1.268996,3.298878 a 0.3298659,0.3298659 0 0 0 0.273542,0.48006 c 0.630435,0 1.367742,-0.60415 1.682957,-1.43385 H 36.86132 a 1.6895181,1.6895181 0 0 1 -0.919373,0.70559 z m 0.232792,-1.65759 a 0.54659277,0.54659277 0 0 0 0.547092,-0.547107 0.55248815,0.55248815 0 0 0 -0.547092,-0.547088 0.54659277,0.54659277 0 0 0 -0.547107,0.547088 0.540925,0.540925 0 0 0 0.547107,0.547107 m -4.410295,4.958279 2.312475,-6.06153 -0.07427,-0.09057 -1.45107,0.165759 v 0.17481 l 0.281697,0.214684 c 0.257247,0.199277 0.173914,0.390396 -0.05797,1.003614 l -1.807047,4.758103 a 0.38054425,0.38054425 0 0 0 0.331516,0.56341 c 0.663039,0 1.367739,-0.59691 1.682953,-1.43386 h -0.215577 a 1.8766726,1.8766726 0 0 1 -1.002706,0.70559 m -4.393953,-0.56431 c 0,-1.01991 1.134959,-2.404863 1.77444,-2.404863 a 1.4588424,1.4588424 0 0 1 0.389488,0.04983 l -0.663944,1.766283 c -0.381334,0.46467 -0.970096,1.02806 -1.242742,1.02806 -0.158509,0 -0.257242,-0.13224 -0.257242,-0.4393 m 3.489998,-3.407579 -0.347819,-0.02448 -0.390393,0.381342 h -0.08243 c -1.890374,0 -3.523509,2.122257 -3.523509,3.663907 a 0.62713299,0.62713299 0 0 0 0.680245,0.67934 c 0.489125,0 0.969191,-0.69563 1.508127,-1.44201 l -0.02445,0.2654 c -0.06612,0.76266 0.165759,1.17661 0.563405,1.17661 0.464667,0 0.88676,-0.7201 1.210129,-1.43385 h -0.21467 c -0.224637,0.32336 -0.43206,0.51448 -0.596911,0.51448 -0.174819,0 -0.298911,-0.31521 0,-0.98641 z m -8.43922,5.504469 c 0,-0.4384 0.422099,-0.71286 1.02807,-0.95289 a 7.4787251,7.4787251 0 0 0 0.894915,0.33967 c 0.630434,0.20743 0.870467,0.29075 0.870467,0.48098 0,0.4067 -0.687494,0.71285 -1.624981,0.71285 -0.787131,0 -1.168471,-0.16576 -1.168471,-0.58061 m 1.715564,-2.67751 c -0.27355,0 -0.381336,-0.23187 -0.381336,-0.49728 0,-0.737308 0.398542,-1.823339 1.019917,-1.823339 0.273551,0 0.381334,0.231878 0.381334,0.496361 0,0.738221 -0.397643,1.824248 -1.019915,1.824248 m 1.799805,2.27171 c 0,-0.53079 -0.472821,-0.72101 -1.244549,-0.95378 -0.662126,-0.19928 -0.961036,-0.25635 -0.961036,-0.47193 a 0.67791812,0.67791812 0 0 1 0.422997,-0.53079 1.933162,1.933162 0 0 0 1.790746,-1.856865 1.1241012,1.1241012 0 0 0 -0.09149,-0.456515 h 0.920275 l 0.141301,-0.471912 h -1.459233 a 1.1203695,1.1203695 0 0 0 -0.588763,-0.165759 1.9215735,1.9215735 0 0 0 -1.898531,1.831501 1.0661814,1.0661814 0 0 0 0.878616,1.10234 c -0.538958,0.24095 -0.836952,0.52264 -0.836952,0.85507 a 0.52211486,0.52211486 0 0 0 0.223732,0.44746 c -1.243644,0.36412 -1.73277,0.77898 -1.73277,1.36773 0,0.57156 0.754522,0.8125 1.649442,0.8125 1.517189,0 2.786197,-0.82065 2.786197,-1.50905 m -5.795217,-3.547937 c 0.547107,0 0.555256,0.223723 0.472822,0.820637 h 0.314307 l 0.730066,-1.998162 h -0.315215 c -0.273548,0.472822 -0.489125,0.820635 -1.086039,0.820635 h -1.201981 l 0.605066,-1.665734 c 0.199274,-0.556153 0.315215,-0.663944 1.061585,-0.663944 h 0.529884 c 0.77173,0 0.862308,0.207414 0.862308,0.978251 h 0.307062 l 0.257245,-1.359594 h -4.576035 l -0.08334,0.257242 c 0.886766,0.182979 0.970102,0.265396 0.555256,1.409406 l -0.99456,2.71915 c -0.414849,1.13587 -0.588763,1.22735 -1.608677,1.40941 l -0.07428,0.25725 h 5.090523 l 0.911224,-1.44293 h -0.347822 c -0.580608,0.54799 -1.309766,1.06973 -2.329684,1.06973 -1.351436,0 -1.227343,-0.0589 -0.778977,-1.29347 l 0.480066,-1.317911 z m 0.663036,-3.473722 1.616829,-1.111406 v -0.173914 h -0.978248 l -0.895828,1.28532 z"
       id="path981"
       inkscape:connector-curvature="0" />
    <path
       style="stroke-width:0.28099999"
       d="m 42.407103,88.445563 c 0.30706,0 0.572453,0.231892 0.431152,0.820649 l -1.425713,0.331515 c 0.249093,-0.66303 0.663944,-1.152164 0.994561,-1.152164 m 0.78803,2.296174 h -0.281696 c -0.35687,0.422099 -0.738218,0.754528 -1.119552,0.754528 -0.389492,0 -0.588765,-0.231893 -0.588765,-0.754528 a 3.1783657,3.1783657 0 0 1 0.06612,-0.630412 l 2.297079,-0.75453 c 0.447453,-1.061578 -0.09148,-1.524425 -0.721007,-1.524425 -1.086947,0 -2.321534,1.815196 -2.321534,3.406656 0,0.713754 0.33967,1.102338 0.870459,1.102338 0.621375,0 1.268105,-0.605066 1.798894,-1.599627 m -0.45561,-3.332379 1.615921,-1.509054 v -0.173899 h -0.870459 l -0.994555,1.682953 z m -4.750867,1.060669 h 0.605074 l -1.210132,3.307932 a 0.38404832,0.38404832 0 0 0 0.331524,0.563405 c 0.688394,0 1.798895,-0.67934 2.189288,-1.607781 H 39.68792 a 3.0126207,3.0126207 0 0 1 -1.400347,0.845113 l 1.110495,-3.108669 h 1.135861 l 0.141301,-0.472825 h -1.103251 l 0.423006,-1.19382 H 39.55568 l -0.787134,1.19382 -0.779882,0.133155 z m -0.596001,0.373201 c 0.157604,-0.538958 0.07428,-1.010858 -0.340572,-1.010858 -0.489126,0 -0.613218,0.372261 -1.110493,1.441997 v -0.613221 c 0,-0.440206 -0.141309,-0.828776 -0.538943,-0.828776 -0.46467,0 -0.887679,0.720999 -1.211043,1.433842 h 0.216488 c 0.223724,-0.324274 0.430248,-0.51448 0.596001,-0.51448 0.199277,0 0.30706,0.307052 0,0.986392 l -0.894915,1.990019 c -0.165759,0.373188 0.0081,0.613221 0.373185,0.613221 a 0.36872539,0.36872539 0 0 0 0.413949,-0.298001 l 0.879513,-2.329675 c 0.248188,-0.30708 0.471917,-0.572476 0.754521,-0.87046 z M 32.30214,88.445563 c 0.306161,0 0.571554,0.231892 0.431161,0.820649 l -1.42662,0.331515 c 0.249092,-0.66303 0.663944,-1.152164 0.995459,-1.152164 m 0.787132,2.296174 h -0.281703 c -0.355973,0.422099 -0.737307,0.754528 -1.119554,0.754528 -0.389483,0 -0.588757,-0.231893 -0.588757,-0.754528 a 3.1121368,3.1121368 0 0 1 0.06703,-0.630412 l 2.296175,-0.75453 c 0.447456,-1.061578 -0.09149,-1.524425 -0.721013,-1.524425 -1.086037,0 -2.321529,1.815196 -2.321529,3.406656 0,0.713754 0.33967,1.102338 0.870462,1.102338 0.622272,0 1.268996,-0.605066 1.798892,-1.599627 m -5.628565,0.928441 c -0.223724,0 -0.547107,-0.206518 -0.547107,-0.390382 a 4.7131624,4.7131624 0 0 1 0.223732,-0.637681 L 27.5105,89.65481 c 0.397643,-0.471912 1.002707,-0.977355 1.342379,-0.977355 0.207429,0 0.365019,0.133155 0.365019,0.439321 0,0.903963 -0.845096,2.553402 -1.757228,2.553402 m 2.611387,-2.918446 c 0,-0.671188 -0.249093,-0.919362 -0.712858,-0.919362 -0.580608,0 -1.127701,0.613193 -1.674799,1.359565 l 1.384043,-3.640341 -0.07427,-0.09059 -1.450165,0.165746 v 0.173939 l 0.281697,0.215583 c 0.256342,0.199274 0.173913,0.405789 -0.05796,1.0027 l -1.492739,3.84689 a 4.334262,4.334262 0 0 0 -0.240033,0.704689 c 0,0.397635 0.538944,0.770823 1.027164,0.770823 1.127701,0 3.009929,-2.030765 3.009929,-3.589632 M 25.562154,88.312446 A 0.33909956,0.33909956 0 0 0 25.288606,87.83238 c -0.663039,0 -1.451084,0.596001 -1.765383,1.433842 h 0.214684 a 1.6965066,1.6965066 0 0 1 0.921188,-0.705591 l -1.26901,3.300688 a 0.3298659,0.3298659 0 0 0 0.273562,0.480041 c 0.630432,0 1.36774,-0.605066 1.682951,-1.433856 H 25.13102 a 1.6929182,1.6929182 0 0 1 -0.920275,0.704703 z m 0.231878,-1.657619 a 0.547107,0.547107 0 1 0 -0.547107,-0.548011 0.54678947,0.54678947 0 0 0 0.547107,0.548011 M 22.453504,86.124038 H 19.43544 l -0.08243,0.257239 c 0.886765,0.182088 0.970096,0.264482 0.555256,1.409406 l -0.978249,2.719186 c -0.414851,1.135856 -0.588762,1.226425 -1.60868,1.408493 l -0.07427,0.258152 h 4.593231 l 0.994557,-1.77445 h -0.347824 c -0.563405,0.621375 -1.227341,1.401262 -2.247255,1.401262 -0.770828,0 -0.862311,-0.133152 -0.447459,-1.293443 l 0.978248,-2.719186 c 0.405795,-1.135856 0.588762,-1.227324 1.607772,-1.409406 z"
       id="path983"
       inkscape:connector-curvature="0" />
  </g>
</svg>
