<?xml version="1.0" encoding="UTF-8"?>
<svg width="88px" height="81px" viewBox="0 0 88 81" version="1.1" xmlns="http://www.w3.org/2000/svg" xmlns:xlink="http://www.w3.org/1999/xlink">
    <title>374412AD-1560-422E-A783-C0383225EAA8</title>
    <g id="LOT-1---Home" stroke="none" stroke-width="1" fill="none" fill-rule="evenodd">
        <g id="Home/desktop" transform="translate(-16.000000, -17.000000)" fill="#43D6DD">
            <g id="logo/numeum" transform="translate(-4.000000, 0.000000)">
                <path d="M30.6262273,58.1755816 C38.5698396,58.1755816 40.6880423,61.6239586 40.6880423,66.8714785 L40.6880423,78.1167797 L26.9193022,78.1167797 L26.9193022,88.4621504 C26.9193022,91.08603 28.0665093,92.3604927 30.6262273,92.3604927 C33.1856634,92.3604927 34.3331524,91.08603 34.3331524,88.4621504 L34.3331524,83.5144477 L40.6880423,83.5144477 L40.6880423,88.4621504 C40.6880423,93.7099097 38.5698396,97.1585262 30.6262273,97.1585262 C22.682615,97.1585262 20.3879189,93.7099097 20.3879189,88.4621504 L20.3879189,66.8714785 C20.3879189,61.6239586 22.682615,58.1755816 30.6262273,58.1755816 Z M53.472141,17.9532806 L53.472141,88.462294 C53.472141,90.7863565 54.3546079,92.3606364 57.179348,92.3606364 C60.0035242,92.3606364 60.8862731,90.7863565 60.8862731,88.462294 L60.8862731,17.9532806 L67.4176564,17.9532806 L67.4176564,96.4088874 L63.5339559,96.4088874 L61.8569868,94.3846421 C60.621533,96.1840244 58.5912952,97.1584304 55.5020969,97.1584304 C49.3239824,97.1584304 46.9407577,94.3096878 46.9407577,88.462294 L46.9407577,17.9532806 L53.472141,17.9532806 Z M99.5693392,58.1754618 C105.747736,58.1754618 107.689727,61.2490674 107.689727,66.571781 L107.689727,96.4088634 L101.158344,96.4088634 L101.158344,66.7966439 C101.158344,64.6974444 100.540335,62.9732559 97.7158767,62.9732559 C95.0679119,62.9732559 93.9204229,64.4725815 93.9204229,66.7216896 L93.9204229,96.4088634 L87.3890396,96.4088634 L87.3890396,66.7966439 C87.3890396,64.6974444 86.7715947,62.9732559 83.9471366,62.9732559 C81.1226784,62.9732559 80.1516828,64.6974444 80.1516828,66.7966439 L80.1516828,96.4088634 L73.6202996,96.4088634 L73.6202996,58.9250049 L77.5037181,58.9250049 L79.1809692,60.9492501 C80.6814449,59.0749135 83.0643877,58.1754618 85.8005991,58.1754618 C89.1548194,58.1754618 91.2727401,59.0749135 92.5084758,60.8742958 C93.9204229,59.3749702 96.1271542,58.1754618 99.5693392,58.1754618 Z M30.6262273,62.9733756 C28.0665093,62.9733756 26.9193022,64.2475988 26.9193022,66.8714785 L26.9193022,73.9186202 L34.3331524,73.9186202 L34.3331524,66.8714785 C34.3331524,64.2475988 33.1856634,62.9733756 30.6262273,62.9733756 Z M32.214837,17.2419331 C38.3932335,17.2419331 40.7761762,20.0904363 40.7761762,25.9380695 L40.7761762,55.4753347 L34.244793,55.4753347 L34.244793,25.9380695 C34.244793,23.6140071 33.362326,22.0397272 30.5378678,22.0397272 C27.7134097,22.0397272 26.8309427,23.6140071 26.8309427,25.9380695 L26.8309427,55.4753347 L20.2995595,55.4753347 L20.2995595,17.9914762 L24.182696,17.9914762 L25.8599471,20.0157214 C27.2721762,18.2163391 29.3024141,17.2419331 32.214837,17.2419331 Z M99.5693392,17.2418852 C105.747736,17.2418852 107.689727,20.3154908 107.689727,25.6382044 L107.689727,55.4752868 L101.158344,55.4752868 L101.158344,25.8630673 C101.158344,23.7638678 100.540335,22.0396793 97.7158767,22.0396793 C95.0679119,22.0396793 93.9204229,23.5390049 93.9204229,25.788113 L93.9204229,55.4752868 L87.3890396,55.4752868 L87.3890396,25.8630673 C87.3890396,23.7638678 86.7715947,22.0396793 83.9471366,22.0396793 C81.1226784,22.0396793 80.1516828,23.7638678 80.1516828,25.8630673 L80.1516828,55.4752868 L73.6202996,55.4752868 L73.6202996,17.9914283 L77.5037181,17.9914283 L79.1809692,20.0156735 C80.6814449,18.1413369 83.0643877,17.2418852 85.8005991,17.2418852 C89.1548194,17.2418852 91.2727401,18.1413369 92.5084758,19.9407192 C93.9204229,18.4413936 96.1271542,17.2418852 99.5693392,17.2418852 Z" id="Combined-Shape"></path>
            </g>
        </g>
    </g>
</svg>